<svg id="_レイヤー_2" xmlns="http://www.w3.org/2000/svg" viewBox="0 0 593 100"><defs><style>.cls-6{fill:#7d7e80}.cls-7{fill:#74c7c5}.cls-8{fill:#74a6c7}</style></defs><g id="RGB"><g id="yoko_RGB"><path fill="none" d="M0 0h593v100H0z"/><g id="_ロゴタイプ"><path class="cls-7" d="M383.07 35.91l-10.55 25.72h21.03l-10.48-25.72z"/><path class="cls-6" d="M160.83 68.53a.4.4 0 01-.2.34c-2.4 1.23-5.56 2.26-9.81 2.26-7.1 0-11.41-2.42-14.81-5.63-4.67-4.48-6.49-9.51-6.49-15.44 0-7.33 3.03-12.6 6.49-15.81 4.07-3.82 9.1-5.33 14.87-5.33 2.8 0 6.13.47 9.75 2.37.13.07.2.2.2.34v8.02c0 .34-.41.5-.65.26a12.998 12.998 0 00-9.12-3.85c-8.13 0-13.41 6.66-13.41 14.11 0 8.96 6.92 13.81 13.71 13.81 3.43 0 6.51-1.36 8.81-3.71.24-.24.65-.08.65.26v8zm54.61-18.48c0 12.29-8.86 21.08-21.6 21.08s-21.6-8.78-21.6-21.08 8.86-21.14 21.6-21.14 21.6 8.84 21.6 21.14zm-8.13 0c0-8.18-5.58-13.99-13.47-13.99s-13.47 5.81-13.47 13.99 5.58 13.93 13.47 13.93 13.47-5.75 13.47-13.93zm30.83-20.23c5.64 0 10.56.61 15.05 3.94 4.92 3.69 7.77 9.57 7.77 16.29s-2.79 12.54-8.13 16.29c-4.73 3.33-9.16 3.88-14.81 3.88h-10.06a.38.38 0 01-.38-.38V30.2c0-.21.17-.38.38-.38h10.18zm-2.67 33.23c0 .21.17.38.38.38h2.05c2 0 6.37-.12 9.89-2.67 3.22-2.3 5.04-6.42 5.04-10.72s-1.76-8.36-4.98-10.78c-3.28-2.42-7.28-2.66-9.95-2.66h-2.05a.38.38 0 00-.38.38v26.07zm60.91-26.45h-13.81a.38.38 0 00-.38.38v8.27c0 .21.17.38.38.38h13.2c.21 0 .38.17.38.38v6.03c0 .21-.17.38-.38.38h-13.2a.38.38 0 00-.38.38v10.27c0 .21.17.38.38.38h13.81c.21 0 .38.17.38.38v6.03c0 .21-.17.38-.38.38h-21.69a.38.38 0 01-.38-.38V30.2c0-.21.17-.38.38-.38h21.69c.21 0 .38.17.38.38v6.03c0 .21-.17.38-.38.38zm46.45-6.78c4.55 0 7.71.48 10.68 3.09 3.28 2.91 4.13 6.84 4.13 9.75 0 1.57-.24 5.94-3.34 9.02-2.25 2.24-5.58 3.57-10.26 3.57h-4.72a.38.38 0 00-.38.38v14.2c0 .21-.17.38-.38.38h-7.13a.38.38 0 01-.38-.38V30.2c0-.21.17-.38.38-.38h11.39zm-3.88 18.28c0 .21.17.38.38.38h2.84c1.52 0 3.46 0 5.16-1.27 1.46-1.15 2.18-2.97 2.18-4.72 0-2.24-1.09-3.76-2.25-4.6-1.64-1.15-3.7-1.27-5.58-1.27h-2.35a.38.38 0 00-.38.38v11.11zm63.95 21.58l-19.55-41.56a.382.382 0 00-.69 0l-19.79 41.56c-.12.25.06.54.34.54H371c.11 0 .21-.05.28-.12l3.35-3.68c.07-.08.17-.12.28-.12h15.99c.11 0 .21.05.28.12l3.35 3.68c.07.08.17.12.28.12h7.73c.28 0 .46-.29.34-.54zm-14.13-9.18h-11.52c-.21 0-.37-.2-.32-.41l5.72-22.2c.11-.42.61-.42.71 0l5.73 22.2c.05.2-.11.41-.32.41zm34.29-30.3v32.86c0 .21.17.38.38.38h11.74c.21 0 .38.17.38.38v6.03c0 .21-.17.38-.38.38h-19.63a.38.38 0 01-.38-.38V30.2c0-.21.17-.38.38-.38h7.13c.21 0 .38.17.38.38zm48.53 6.4h-13.81a.38.38 0 00-.38.38v8.27c0 .21.17.38.38.38h13.2c.21 0 .38.17.38.38v6.03c0 .21-.17.38-.38.38h-13.2a.38.38 0 00-.38.38v10.27c0 .21.17.38.38.38h13.81c.21 0 .38.17.38.38v6.03c0 .21-.17.38-.38.38H449.9a.38.38 0 01-.38-.38V30.2c0-.21.17-.38.38-.38h21.69c.21 0 .38.17.38.38v6.03c0 .21-.17.38-.38.38zm30.54.38v32.86c0 .21-.17.38-.38.38h-7.13a.38.38 0 01-.38-.38V36.98a.38.38 0 00-.38-.38h-8.34a.38.38 0 01-.38-.38v-6.03c0-.21.17-.38.38-.38h25.34c.21 0 .38.17.38.38v6.03c0 .21-.17.38-.38.38h-8.34a.38.38 0 00-.38.38zm36.53 0v32.86c0 .21-.17.38-.38.38h-7.13a.38.38 0 01-.38-.38V36.98a.38.38 0 00-.38-.38h-8.34a.38.38 0 01-.38-.38v-6.03c0-.21.17-.38.38-.38h25.34c.21 0 .38.17.38.38v6.03c0 .21-.17.38-.38.38h-8.34a.38.38 0 00-.38.38zm43.43-.38h-13.81a.38.38 0 00-.38.38v8.27c0 .21.17.38.38.38h13.2c.21 0 .38.17.38.38v6.03c0 .21-.17.38-.38.38h-13.2a.38.38 0 00-.38.38v10.27c0 .21.17.38.38.38h13.81c.21 0 .38.17.38.38v6.03c0 .21-.17.38-.38.38H560.4a.38.38 0 01-.38-.38V30.2c0-.21.17-.38.38-.38h21.69c.21 0 .38.17.38.38v6.03c0 .21-.17.38-.38.38zm-239.22-6.78c4.55 0 7.71.48 10.68 3.09 3.28 2.91 4.13 6.84 4.13 9.75 0 1.57-.24 5.94-3.34 9.02-2.25 2.24-5.58 3.57-10.26 3.57h-4.72a.38.38 0 00-.38.38v14.2c0 .21-.17.38-.38.38h-7.13a.38.38 0 01-.38-.38V30.2c0-.21.17-.38.38-.38h11.39zm-3.88 18.28c0 .21.17.38.38.38h2.84c1.52 0 3.46 0 5.16-1.27 1.46-1.15 2.18-2.97 2.18-4.72 0-2.24-1.09-3.76-2.25-4.6-1.64-1.15-3.7-1.27-5.58-1.27h-2.35a.38.38 0 00-.38.38v11.11zm63.95 21.58l-19.55-41.56a.382.382 0 00-.69 0l-19.79 41.56c-.12.25.06.54.34.54h7.79c.11 0 .21-.05.28-.12l3.35-3.68c.07-.08.17-.12.28-.12h15.99c.11 0 .21.05.28.12l3.35 3.68c.07.08.17.12.28.12h7.73c.28 0 .46-.29.34-.54zm-14.13-9.18h-11.52c-.21 0-.37-.2-.32-.41l5.72-22.2c.11-.42.61-.42.71 0l5.73 22.2c.05.2-.11.41-.32.41zm34.29-30.3v32.86c0 .21.17.38.38.38h11.74c.21 0 .38.17.38.38v6.03c0 .21-.17.38-.38.38h-19.63a.38.38 0 01-.38-.38V30.2c0-.21.17-.38.38-.38h7.13c.21 0 .38.17.38.38zm48.53 6.4h-13.81a.38.38 0 00-.38.38v8.27c0 .21.17.38.38.38h13.2c.21 0 .38.17.38.38v6.03c0 .21-.17.38-.38.38h-13.2a.38.38 0 00-.38.38v10.27c0 .21.17.38.38.38h13.81c.21 0 .38.17.38.38v6.03c0 .21-.17.38-.38.38h-21.69a.38.38 0 01-.38-.38V30.2c0-.21.17-.38.38-.38h21.69c.21 0 .38.17.38.38v6.03c0 .21-.17.38-.38.38zm30.54.38v32.86c0 .21-.17.38-.38.38h-7.13a.38.38 0 01-.38-.38V36.98a.38.38 0 00-.38-.38h-8.34a.38.38 0 01-.38-.38v-6.03c0-.21.17-.38.38-.38h25.34c.21 0 .38.17.38.38v6.03c0 .21-.17.38-.38.38h-8.34a.38.38 0 00-.38.38zm36.53 0v32.86c0 .21-.17.38-.38.38h-7.13a.38.38 0 01-.38-.38V36.98a.38.38 0 00-.38-.38h-8.34a.38.38 0 01-.38-.38v-6.03c0-.21.17-.38.38-.38h25.34c.21 0 .38.17.38.38v6.03c0 .21-.17.38-.38.38h-8.34a.38.38 0 00-.38.38zm43.43-.38h-13.81a.38.38 0 00-.38.38v8.27c0 .21.17.38.38.38h13.2c.21 0 .38.17.38.38v6.03c0 .21-.17.38-.38.38h-13.2a.38.38 0 00-.38.38v10.27c0 .21.17.38.38.38h13.81c.21 0 .38.17.38.38v6.03c0 .21-.17.38-.38.38h-21.69a.38.38 0 01-.38-.38V30.2c0-.21.17-.38.38-.38h21.69c.21 0 .38.17.38.38v6.03c0 .21-.17.38-.38.38z"/></g><g id="_シンボルマーク"><path class="cls-6" d="M57.62 90c-25.27 0-45.83-17.56-45.83-39.14s20.56-39.14 45.83-39.14 45.83 17.56 45.83 39.14c0 8.15-2.9 15.96-8.39 22.59-.58.7-1.47 1.07-2.37.98-.91-.09-1.73-.62-2.18-1.43a7.07 7.07 0 00-6.68-3.61c-3.58.26-6.43 3.29-6.48 6.89a6.93 6.93 0 001.99 4.99c.63.65.91 1.57.73 2.45-.17.88-.77 1.63-1.6 1.99-6.49 2.84-13.51 4.27-20.85 4.27zm0-75.44c-23.71 0-43 16.29-43 36.3s19.29 36.3 43 36.3c6.91 0 13.5-1.34 19.6-3.99a9.754 9.754 0 01-2.71-6.93c.07-5.06 4.07-9.31 9.11-9.68 3.8-.28 7.46 1.67 9.33 4.98 5.02-6.09 7.67-13.24 7.67-20.69 0-20.02-19.29-36.3-43-36.3z"/><path d="M74.64 74.55c.06-4.32 3.48-7.97 7.79-8.29a8.43 8.43 0 018.03 4.34c.46.83 1.6.96 2.21.23 5.08-6.13 8.07-13.61 8.07-21.68 0-20.83-19.88-37.72-44.41-37.72S11.92 28.31 11.92 49.14 31.8 86.86 56.33 86.86c7.31 0 14.2-1.5 20.28-4.16.86-.37 1.07-1.49.42-2.16a8.407 8.407 0 01-2.39-6z" fill="#fff"/><path class="cls-6" d="M56.33 88.28c-25.27 0-45.83-17.56-45.83-39.14S31.06 10 56.33 10s45.83 17.56 45.83 39.14c0 8.15-2.9 15.96-8.39 22.59-.58.7-1.47 1.07-2.37.98-.91-.09-1.73-.62-2.18-1.43a7.07 7.07 0 00-6.68-3.61c-3.58.26-6.43 3.29-6.48 6.89a6.93 6.93 0 001.99 4.99c.63.65.91 1.57.73 2.45-.17.88-.77 1.63-1.6 1.99-6.49 2.84-13.51 4.27-20.85 4.27zm0-75.44c-23.71 0-43 16.29-43 36.3s19.29 36.3 43 36.3c6.91 0 13.5-1.34 19.6-3.99a9.754 9.754 0 01-2.71-6.93c.07-5.06 4.07-9.31 9.11-9.68 3.81-.28 7.46 1.67 9.33 4.98 5.02-6.09 7.67-13.24 7.67-20.69 0-20.02-19.29-36.3-43-36.3z"/><path d="M38.65 58.04c-.36 0-.72-.07-1.06-.23l-14.46-6.39a2.627 2.627 0 01-1.34-3.47 2.627 2.627 0 013.47-1.34L39.72 53c1.33.59 1.93 2.14 1.34 3.47-.44.98-1.4 1.57-2.41 1.57z" fill="#f3a493"/><path class="cls-8" d="M23.57 51.15c-.99 0-1.94-.56-2.39-1.52a2.627 2.627 0 011.27-3.5l15.03-7.01c1.32-.61 2.88-.05 3.5 1.27.62 1.32.05 2.88-1.27 3.5L24.68 50.9c-.36.17-.74.25-1.11.25z"/><path class="cls-7" d="M50.5 68.72c-.3 0-.6-.05-.89-.16-1.37-.49-2.08-2-1.59-3.37L59.9 32.2c.49-1.37 2-2.08 3.37-1.58 1.37.49 2.08 2 1.59 3.37L52.98 66.98a2.643 2.643 0 01-2.48 1.74z"/><path fill="#eade63" d="M88.58 47.99L74.12 41.6"/><path d="M88.58 50.62c-.36 0-.72-.07-1.06-.23L73.06 44a2.627 2.627 0 01-1.34-3.47 2.627 2.627 0 013.47-1.34l14.46 6.39c1.33.59 1.93 2.14 1.34 3.47-.44.98-1.4 1.57-2.41 1.57z" fill="#e9d900"/><path class="cls-8" d="M74.17 58.14c-.99 0-1.94-.56-2.39-1.52a2.627 2.627 0 011.27-3.5l15.03-7.01c1.32-.61 2.88-.05 3.5 1.27.62 1.32.05 2.88-1.27 3.5l-15.03 7.01c-.36.17-.74.25-1.11.25z"/></g></g></g></svg>