<svg xmlns="http://www.w3.org/2000/svg" width="800.46" height="522.403"><defs><clipPath id="a"><circle cx="50" cy="50" r="50" transform="translate(.364 .44)" fill="none" stroke="#707070"/></clipPath><clipPath id="b"><ellipse cx="50.5" cy="50" rx="50.5" ry="50" transform="translate(-.457 -.108)" fill="none" stroke="#707070"/></clipPath><clipPath id="c"><circle cx="49.981" cy="49.981" r="49.981" fill="none" stroke="#707070"/></clipPath></defs><g fill="#e6e6e6"><path d="M332.986 70.435c2.8-5.645 7.285-10.331 10.025-16.006s3.274-13.271-1.292-17.615c-3.877-3.688-9.951-3.74-14.587-6.412-11.813-6.806-11.8-28.425-25.3-30.293-6.567-.908-12.509 4.016-16.478 9.327s-7.132 11.506-12.637 15.2c-6.232 4.182-14.288 4.364-21.208 7.269-13.267 5.569-20.223 19.89-26.039 33.052-3.747 8.478-7.579 17.623-5.841 26.728-3.779 2.351-2.095 8.675 1.677 11.037s8.508 2.31 12.839 3.333c9.1 2.15 16.556 9.4 20.09 18.057 2.754 6.75 3.317 14.161 3.849 21.431l2.766 37.848c.41 5.613.948 11.578 4.365 16.05s10.815 6.346 14.655 2.233c3.67-3.931 2.017-10.155 1.943-15.533s4.787-12.074 9.371-9.261l1.617-3.668a57.863 57.863 0 0038.165-49.755c1.167-17.856-5.939-36.999 2.02-53.022zm10.697 113.209a7.286 7.286 0 00-4.18-12.543l.017.606a12.529 12.529 0 01-6.5 1.708 19.684 19.684 0 00-6.688 1.059 5.637 5.637 0 00-3.709 5.186 5.474 5.474 0 002.952 4.111 16.171 16.171 0 005.019 1.524c4.5.847 9.762 1.487 13.089-1.651zm87.682-112.91a16.556 16.556 0 004.7-4.863 5.646 5.646 0 00-.366-6.37 7.565 7.565 0 00-5.119-1.849 39.82 39.82 0 00-15.085 1.779l14.994 13.284zM406.37 82.251c2.02 2.23 1.376 5.689.8 8.643s-.645 6.645 1.9 8.257c2.2 1.4 5.293.257 6.9-1.794a15.9 15.9 0 002.554-7.3 51.043 51.043 0 001.066-11.53 17.777 17.777 0 00-3.916-10.7 12.6 12.6 0 00-14.285-3.337l2.322-.115a22.672 22.672 0 00-3.778 7.249 7.7 7.7 0 001.909 7.581c1.382 1.191 3.301 1.692 4.528 3.046zm113.938-37.397l.412-1.272a8.7 8.7 0 00-3.916 10.235 9.512 9.512 0 003.504-8.963zm-22.446 18.198a16.173 16.173 0 008.083-12.1 8.9 8.9 0 00-.523-4.62 4.775 4.775 0 00-3.478-2.872l-.94 1.48c-1.349-1.161-3.614.033-4.181 1.72a9.21 9.21 0 00.438 5.237 6.9 6.9 0 01-.082 5.195 18.678 18.678 0 01-2.545 2.674 2.664 2.664 0 00-.486 3.35c.881 1.012 2.539.588 3.714-.064zm-9.569-8.271a8.8 8.8 0 001.1-4.75l-2.057-.645a8.783 8.783 0 00-3.4 2.458 2.677 2.677 0 104.359 2.937zm100.518-10.405c.186.156.371.316.557.473.164-.034.32-.1.487-.117zm-3.295 18.049l5.664-4.582a9.446 9.446 0 002.517-2.646 6.4 6.4 0 00-.456-6.161 16.949 16.949 0 00-3.872-4.186 7 7 0 00-5.344 7.609c.341 2.166 1.7 4.481.591 6.372-.432.736-1.176 1.237-1.674 1.93s-.66 1.8.025 2.307c.76.566 1.812-.047 2.549-.643zm4.129 9.35a4.9 4.9 0 003.792-1.492 33.483 33.483 0 006.554-7.2l-12.74 4.035 1.324 1.549c-1.181.768-.309 2.843 1.07 3.108zm11.908 8.745a3.256 3.256 0 003.362 2.053 4.863 4.863 0 003.467-2.219 6.458 6.458 0 00-5.078-10.078l1.173 1.792c.299 3.059-3.859 5.524-2.924 8.452zm82.51 33.502a6.625 6.625 0 007.95-.019 7.091 7.091 0 00.424-10.391l-2.17 1.211a5.525 5.525 0 00-7.523 1.494 6.023 6.023 0 001.319 7.705zm25.23 2.856a6.428 6.428 0 004.409-4.479l-4.219-.554a9.339 9.339 0 00-3.987-1.741 3.2 3.2 0 00-3.473 2.047 3.465 3.465 0 001.183 3.167 6.427 6.427 0 006.087 1.561zm-17.419 8.437a3.636 3.636 0 002.431 3.047 3.939 3.939 0 004.374-.677 2.415 2.415 0 00-.876-3.829l-3.163-.575c-1.224-.638-2.786.654-2.766 2.034zm-183.551 22.239l-2.448-2.236a8.015 8.015 0 002.448 2.236z"/><path d="M489.622 134.39c1.507 7 9.047 12.7 15.891 10.6l.361.33c-2.179-2.983-2.548-7.4-2.039-11.233a39.558 39.558 0 0122.819-30.4 9.416 9.416 0 004.282-2.79c.975-1.426.611-3.873-1.069-4.276a4 4 0 00-2.609.6l-12.72 6.26c-6.425 3.162-12.977 6.415-18.023 11.495s-8.4 12.414-6.893 19.414zM284.297 375.095a156.181 156.181 0 00-38.564-20.153c-8.44-3-17.509-5.29-26.3-3.586a31.309 31.309 0 00-22.15 17.682 32.792 32.792 0 001.072 28.422c4.055 7.6 11.078 13.652 13.426 21.939 1.583 5.587.833 11.536.071 17.293l-4.67 35.295c-1.417 10.711-2.8 21.858.593 32.116s13.068 19.3 23.818 18.212l2.13-.16c-7.111-4.835-9.1-14.846-6.987-23.18s7.491-15.4 12.737-22.214l46.709-60.653c6.3-8.18 12.962-18.29 9.6-28.052-1.911-5.55-6.713-9.544-11.485-12.961zM178.19 323.987c-1.577-.534-3.242.653-4.169 2.036a27.949 27.949 0 01-2.631 4.229c-2.425 2.5-6.845 2-9.461-.3s-3.749-5.857-4.257-9.3c-.609-4.135-.346-8.748 2.383-11.913 2.809-3.259 7.427-4.133 11.676-4.81 4.389-.7 9.306-1.282 12.9 1.33 2.265 1.645 3.585 4.3 5.683 6.153s5.83 2.555 7.409.244a5.688 5.688 0 00-.076-5.269 12.9 12.9 0 01-1.566-5.217c.106-2.541 2.146-4.56 4.234-6.013s4.445-2.706 5.815-4.848c1.685-2.636 1.506-6.031 2.551-8.979 2.529-7.136 11.557-10.31 14.186-17.41a6.712 6.712 0 00.2-4.708c-1.1-2.828-4.076-2.273-4.258-5.729-.175-3.306 2.583-6.549 5.386-7.929 3.864-1.9 8.368-1.749 12.674-1.865s8.944-.688 12.1-3.615a10.433 10.433 0 00-1.109-15.52c-2.355-1.626-5.331-2.192-7.622-3.906-2.854-2.135-4.2-5.692-6.427-8.478a32.611 32.611 0 00-6.294-5.573l-5.721-4.245c-3.448-2.558-7.035-5.181-11.23-6.093s-9.191.378-11.292 4.122a12.738 12.738 0 00-1.326 5.361 77.2 77.2 0 00.547 13.132l1.039 10.514c.31 3.142-.023 7.284-3.073 8.1-6.766 1.809-4.483-8.2-5.983-11.26-2.3-4.691-12.85-6.944-17.362-8.9-2.818-1.221-5.791-2.569-7.492-5.125-2.118-3.182-1.683-7.512-.022-10.954s4.366-6.244 6.824-9.171c2.505-2.983 4.787-6.147 7.066-9.307l7.929-10.995c3.39-4.7 6.953-10.437 5.028-15.9a4.278 4.278 0 00-7.829.944c-.844 2.951 1.407 6.718-.746 8.905a4.037 4.037 0 01-5.181-.1 11.769 11.769 0 01-3.1-4.682c-2.609-5.8-5.151-11.633-7.83-17.4-.847-1.823-1.73-4.944-4.3-4.637-2.227.267-3.43 3.513-3.353 5.4.113 2.742 1.628 5.192 2.786 7.68s1.968 5.475.7 7.907c-1.61 3.079-5.689 3.771-9.162 3.669a42.96 42.96 0 01-18.753-4.948l-.454 9.653-13.83-5.789-2.686-1.124c-3.889-1.628-7.782-3.257-11.786-4.579-2.273-.75-4.577-1.4-6.88-2.049l-4.2-1.184a22.039 22.039 0 00-8.62-1.23c-3.075.386-5.817 2.038-8.661 3.272-6.344 2.754-14.55-.017-21.349-.066a28.544 28.544 0 00-47.955 1.329 57.113 57.113 0 00-3.187 6.408l-2.768 6.2c-1.353 3.033-2.736 6.228-2.47 9.538s2.8 6.692 6.124 6.662c-7.831 3.545-9.46 15.951-2.811 21.4 1.841 1.508 4.1 2.495 5.756 4.2a9.026 9.026 0 01-6.781 15.3 21.983 21.983 0 0026.131-8.185c2.843-4.451 4.078-10.012 7.946-13.609 5.122-4.763 13.582-4.394 19.489-.648s9.644 10.123 12.215 16.628c3.368 8.525 5.524 18.266 12.7 23.968 3.47 2.757 7.864 4.308 10.932 7.507 4.368 4.556 5.123 11.433 5.025 17.744s-.778 12.859 1.521 18.737 8.889 10.713 14.8 8.5a23.539 23.539 0 009.86 27.497l-3.23-20.035c5.366 1.511 8.845 6.716 10.853 11.916s3.07 10.825 5.982 15.579c4.585 7.486 12.888 10.712 21.334 10.684 9.124-.031 12.588-4.381 18.6-10.788a9.812 9.812 0 002.668-4.006 3.37 3.37 0 00-1.759-4.057zm25.836-.333l-15.3-2.4 8.021 4.822a29.006 29.006 0 007.2 3.47 9.784 9.784 0 007.749-.816l-.653-1.248c-1.026-2.605-4.255-3.394-7.017-3.828zm-3.465 28.348l.035-.089a2.994 2.994 0 00-3.041-1.41 11.122 11.122 0 01-3.557.058 5.046 5.046 0 01-3.058-3.476c-.507-1.525-.657-3.157-1.234-4.657a6.835 6.835 0 00-5.523-4.505 4.773 4.773 0 00-5.134 4.309 7.973 7.973 0 001.19 3.622l1.65 3.174a21.339 21.339 0 001.6 2.73 10.662 10.662 0 0017.076.243zM170.776 80.607c3.883 2.289 8.746 3.867 10.591 7.98l1.065.344-3.483 4.328c-1.435 1.783-2.944 3.77-2.91 6.058.046 3.152 3.078 5.529 6.141 6.272a13.458 13.458 0 0015.558-9.17c.364-1.329.515-2.707.834-4.046a32.914 32.914 0 014.169-8.956l30.936-52.045c1.284-2.161 2.608-4.745 1.642-7.066a5.551 5.551 0 00-5.481-2.941 16.281 16.281 0 00-6.239 2.1 10.625 10.625 0 00-8.311-5.329 31.376 31.376 0 00-10.2.888 62.8 62.8 0 00-21.4 7.352c-3.627 1.833-7.618 4.1-8.67 8.023-1.294 4.828 2.877 9.749 7.679 11.137s9.928.222 14.789-.946a11.191 11.191 0 01-18.706 10.559c-3.484-3.392-5.19-9.282-9.974-10.157-4.768-.873-8.558 4.213-9.611 8.945a25.418 25.418 0 0011.581 26.672z"/><path d="M230.584 164.085a91.452 91.452 0 00-9-18.462 55.164 55.164 0 00-10.223-12.328 39.514 39.514 0 00-12.369-7.245c-4.4-1.59-9.293-2.376-13.738-.926s-8.227 5.583-8.137 10.258c.1 5.169 4.622 9.212 9.336 11.336s9.957 3.048 14.4 5.685a21.59 21.59 0 0110.37 17.43l1.12 1.852a22.387 22.387 0 00-6.987 3.8 7.6 7.6 0 00-2.654 7.141c.777 3.13 3.973 4.926 6.863 6.358l16.021 7.935c-2.719-8.108 6.183-15.653 6.676-24.19a22.362 22.362 0 00-1.681-8.652zM96.306 142.194c3.24 2.516 8.22 1.339 11.188-1.492s4.413-6.86 5.761-10.734a41.444 41.444 0 00.139 11.54 13.979 13.979 0 006.082 9.453 16.391 16.391 0 004.681 1.7 39.407 39.407 0 0022.864-1.633l.065-2.493c-3.663.418-6.434-3.6-6.676-7.278s1.093-7.286 1.211-10.971-1.658-7.99-5.286-8.645a7.013 7.013 0 01-8.919 9.622c-4.2-1.707-5.724-6.823-8.969-9.988a13.61 13.61 0 00-14.935-2.1 18.522 18.522 0 00-9.6 12.208c-.987 3.789-.695 8.412 2.394 10.811zm99.978-26.254l.15-.244c-.9-2.612-3.708-4.143-6.444-4.531a41.873 41.873 0 00-8.268.273 11.988 11.988 0 01-7.928-1.746c-1.883-1.408-2.956-3.623-4.462-5.43s-3.943-3.292-6.13-2.428c-2.368.935-3 4.254-1.851 6.526a11.537 11.537 0 005.8 4.737 44.763 44.763 0 0029.129 2.843zm-31.12 7.828a3.637 3.637 0 004.052 6.033l.8.789c1.063-1.9 1.5-4.452.142-6.155a3.774 3.774 0 00-4.993-.666zm-9.348 6.825a3.367 3.367 0 00-2.1-3.178 3.224 3.224 0 00-3.743 2.77 6.432 6.432 0 001.685 4.841 4.438 4.438 0 003.082 1.936c1.252.041 2.529-1.268 2.021-2.413l-1.912-.037a9.872 9.872 0 00.968-3.919zm-37.385-19.578l2.106 1.707a25.257 25.257 0 003.923 2.786 10.747 10.747 0 007.994.979 8.229 8.229 0 005.627-5.552c.839-3.163-.53-6.448-1.87-9.433a5.724 5.724 0 00-1.472-2.245 1.962 1.962 0 00-2.483-.1 2.456 2.456 0 00-.4 2.359 6.433 6.433 0 01.388 2.459c-.134.826-1 1.606-1.763 1.264l-.122 2.81c-3.645-1.845-5.573-6.754-9.63-7.238a5.007 5.007 0 00-5 7.348 10.059 10.059 0 002.7 2.854zm-8.683-12.133a5.552 5.552 0 002.367-5.289 3.413 3.413 0 00-4.633-2.473 5.5 5.5 0 00-2.065 3.169l-2.882 8.13 1.615-1.175a16.333 16.333 0 005.6-2.362zm18.71-16.631a3.177 3.177 0 00-.981-4.77l-2.019-.189a3.03 3.03 0 103 4.959zm18.578 3.116c1.884.9 4.269 1.76 5.908.466a3.726 3.726 0 001.141-3.551 9.029 9.029 0 00-1.666-3.509 33.714 33.714 0 00-9.376-9.053l-.911 1.184c-1.272 3.3-2.5 7.161-.726 10.225 1.197 2.064 3.477 3.211 5.63 4.238zm14.035 2.941l3.523 1.594a3.3 3.3 0 00-3.523-1.594zm-9.494 11.085l-1.665.549c-1.416 2.326-.8 5.3-.143 7.943.416 1.671 1.314 3.726 3.034 3.65 1.674-.074 2.414-2.1 2.735-3.747a11.311 11.311 0 00.158-5.48 3.883 3.883 0 00-4.119-2.915zm-26.548-7.829l1.232.5a1.326 1.326 0 10-1.232-.5zm62.102 94.192a3.744 3.744 0 00-3.426 5.046c1.21 2.6 5.376 2.616 7.227.42a5.669 5.669 0 00-1.462-8.21zm60.003 61.706a3.749 3.749 0 00-2.628 4.689l3.459.24 3.514-1.764a3.749 3.749 0 00-4.344-3.166zm-14.057 4.278a7.148 7.148 0 00-3 6.257 5.718 5.718 0 004.474 5.056 4.78 4.78 0 005.4-3.664c.585-3.577-3.26-6.2-4.642-9.549zm134.332-23.628c.365 2.686-2.055 5.038-2.145 7.747-.107 3.214 3.392 5.715 6.592 5.4a10.423 10.423 0 007.488-5.5l.069-.3-4.676-5.286c-1.914-2.164-3.944-4.627-3.869-7.515.037-1.424.6-2.8.566-4.227a10.244 10.244 0 00-.678-2.988c-.422-1.26-1-2.679-2.255-3.1-1.575-.532-3.165.864-3.917 2.347a9.285 9.285 0 00.275 8.745c.91 1.541 2.308 2.9 2.55 4.677zm-14.695 9.45a2.686 2.686 0 002.24.144 11.718 11.718 0 003.941-1.432 3.98 3.98 0 001.919-3.52 4.6 4.6 0 00-3.75-3.482 4.032 4.032 0 00-3.752.573c-1.161 1.09-1.023 2.939-.8 4.515l-.245.411c-.21.973-.353 2.183.447 2.791zm245.353 114.774l-1.012-2.515c-.462 1.138-.29 2.303 1.012 2.515z"/><path d="M800.46 175.982c-4.327-4.694-6.976-7.4-9.708-13.219a21.421 21.421 0 00-16.208-12.171c-8.976-1.479-18.149.863-27.233.394-14.552-.752-27.674-8.557-41.609-12.814a174.1 174.1 0 00-23.779-4.9l-13.883-2.2c-15.169-2.4-30.434-4.8-45.788-4.486-4.427.092-10.6-1.239-10.24-5.653.441-5.482 10.3-4.763 12.2-9.925 1.174-3.193-1.635-6.546-4.716-7.99s-6.637-1.878-9.433-3.817-4.328-6.433-1.758-8.663l-21.368 10.954c-5.922 3.036-12.538 6.985-13.584 13.557a15.709 15.709 0 00-8.82 6.127c-4.006.021-7.155 3.867-7.816 7.819s.54 7.951 1.728 11.777c-1.453-2.784-3-5.673-5.558-7.49s-6.461-2.162-8.644.094c-2.241 2.315-1.717 6.2-.132 9.006s4.021 5.07 5.516 7.924c4.672 8.914-3.794 21.464-13.808 20.471l2.015-27.614a18.48 18.48 0 00-.7-8.446c-1.093-2.635-3.89-4.8-6.674-4.177-5.005 1.119-4.578 8.451-2.5 13.138s4.158 11.205-.093 14.076c-2.745 1.854-6.466.709-9.429-.771s-6.133-3.3-9.372-2.612-5.276 5.643-2.414 7.31l-14.238-2.474a10.128 10.128 0 01-12.673 8.085l-1.4-5.793-2.083-.58c2.18.607-1.231 9.8-4.289 16.824-4.111-.482-10.118-.575-10.8-1.753-3.282-5.641-2.893-19.077-8.6-22.251q-4.29-2.387-8.8-4.35a20.637 20.637 0 00-4.964-1.63c-3.5-.552-7.033.534-10.413 1.608-3.993 1.268-8.08 2.584-11.386 5.157a35.617 35.617 0 00-7.172 8.529l-19.585 28.986a31.061 31.061 0 00-4.536 8.5 11.106 11.106 0 001.034 9.2 7.12 7.12 0 008.339 2.849c1.892-.819 3.787-2.675 5.662-1.818 1.42.649 1.775 2.516 1.626 4.07a10.875 10.875 0 00-.083 4.638c.854 2.42 4.138 3.261 6.48 2.214a10.016 10.016 0 004.76-5.8c2.257-5.788 2.027-12.193 2.589-18.381s2.253-12.805 7.131-16.653c1.46-1.152 3.606-1.982 5.109-.887a3.652 3.652 0 01.9 4.146 16.24 16.24 0 01-2.434 3.824 20.965 20.965 0 00-3.449 16.363l1 .617c3.8-.987 8.894.78 13.944 2.474a18.149 18.149 0 00-9.222 6.343c-5.837 8.19-10.062 15.94-21.609 15.843-2.739-.023-5.455-.565-8.195-.571a10.712 10.712 0 00-7.6 2.531c-2.077 2.034-2.719 5.13-4.5 7.43-2.336 3.025-6.241 4.255-9.807 5.628-2.606 1-5.353 2.358-6.551 4.881a12.092 12.092 0 00-.5 6.465c.4 3.821 1.112 8.167 4.354 10.229a10.312 10.312 0 007.936.671c3.372-.82 6.669-2.365 10.132-2.134 5.437.362 9.914 5.581 9.969 11.029.028 2.758-.777 5.921 1.051 7.987 1.718 1.941 5.125 1.595 6.9-.289a7.956 7.956 0 001.5-7.3 23.492 23.492 0 00-3.44-6.93 8.087 8.087 0 019.306 4.3c1.208 2.683.818 5.778 1.2 8.7s2.161 6.158 5.1 6.327a4.115 4.115 0 004.138-3.248 29.579 29.579 0 00-.242-4.429 5.673 5.673 0 015.73-5.28 8.085 8.085 0 001.982 10.1c2.235 1.73 5.19 2.116 7.975 2.6s5.755 1.248 7.552 3.429c2.994 3.633-.669 5.27-1.24 8.347-.7 3.778 2.455 9.356 3.667 12.97l16.709 23.375a28.276 28.276 0 004.368 5.178c5.5 4.722 14.562 4.256 19.835-.716a17.005 17.005 0 002.888-20c-3.258-5.931-9.715-9.6-12.9-15.574a34.035 34.035 0 0018.683 7.683 94.207 94.207 0 0133.943 14.235 47.333 47.333 0 0011.672 29.053 41.834 41.834 0 0112.138-24.106c4.291-4.185 10.154-7.559 16.041-6.433s10.353 8.632 6.792 13.454l8.951.666 4.014 9.98a3.456 3.456 0 013.371-2.34c2.793.422 4.752 3.02 7.409 3.98 5.008 1.809 10.362-3.2 11.01-8.487s-1.867-10.388-4.309-15.119a28.22 28.22 0 0029-42.818 71.864 71.864 0 0120.187-14.862c6.985-3.451 14.625-5.819 20.73-10.66s10.386-13.246 7.449-20.462c-2.074-5.1-7.277-8.558-8.834-13.837-2.254-7.642 4.593-15.546 12.328-17.455s15.812.438 23.432 2.766c-1.171-7.84 7.917-15.19 15.339-12.406l9.326-3.776c-3.6 7.945-11.412 13-17.153 19.567s-9.161 17.263-3.163 23.6l25.79-23.375 26.976-24.451-1.288-3.784c8.52-3.232 17.682-5.905 25.819-9.918zM353.942 280.847a2.96 2.96 0 00.017 3.4 2.605 2.605 0 003.319.045 7.6 7.6 0 002.1-2.91 4.736 4.736 0 004.815 2.522 11.843 11.843 0 005.313-2.215 11.648 11.648 0 003.226-2.8 4.607 4.607 0 00.811-4.056 6.989 6.989 0 00-2.1-2.706l-6.824-6.3-.771-.231a4.347 4.347 0 00-6.272-.067c-1.413 1.581-1.419 3.944-1.2 6.053s.552 4.356-.387 6.257c-.535 1.088-1.447 1.951-2.047 3.008z"/><path d="M485.922 352.623a47.434 47.434 0 01-36.045-36.23c-.838-4.176-1.218-8.739-4-11.968-2.69-3.126-7.084-4.254-11.208-4.254s-8.189.949-12.3 1.206c-7.2.449-14.821-1.452-19.966-6.5-2.437-2.391-4.281-5.428-7.127-7.315-3.825-2.535-8.9-2.533-13.254-1.1-4.854 1.6-8.74 5.978-14.048 5.375-5.52-.627-11.918-2.578-14.082 4.691-.623 2.093-.411 4.388-1.2 6.424-1.216 3.138-4.445 4.907-7 7.1-5.144 4.415-7.878 11.123-8.8 17.839s-.208 13.537.5 20.278c.385 3.636.891 7.549 3.389 10.22 3.482 3.723 9.324 3.579 14.4 3.159l17.7-1.462c3.181-.263 6.806-.374 9.071 1.875 1.357 1.348 1.931 3.3 3.125 4.793a7.358 7.358 0 008.977 1.81 14.9 14.9 0 0011.243 22.081l.455.287c-3.778 6.47-7.7 13.735-6.131 21.062 1.343 6.282 6.546 11.319 7.4 17.686.781 5.842-2.268 11.817-.919 17.555 1.366 5.81 7.234 9.861 13.187 10.294s11.8-2.208 16.413-6 8.177-8.671 11.69-13.5c2.169-2.979 4.394-6.08 5.139-9.69.793-3.841-.126-8.1 1.742-11.546 2.154-3.977 7.267-5.468 9.847-9.182 3.342-4.81 1.373-11.359 2.112-17.169 1.841-14.371 20.105-23.332 19.69-37.819zm-2.639 49.085c-.5 2.245-2.6 3.723-4.6 4.853s-4.206 2.27-5.227 4.331c-1.045 2.111-.568 4.627-.021 6.918q1.706 7.15 4.019 14.136a143.959 143.959 0 007.812-17.484 22.972 22.972 0 001.714-7.01 8.668 8.668 0 00-2.357-6.624zm122.933-25.006l-7.531-8.693c-1.717-1.982-3.674-4.1-6.275-4.429l-1.071.684 6.529 15.547a14.761 14.761 0 003.943 6.2c1.948 1.531 5.107 1.825 6.732-.046a4.992 4.992 0 00.59-4.952 14.712 14.712 0 00-2.918-4.312zm24.323 5.549a7.216 7.216 0 004.267-3.977 21.386 21.386 0 001.526-5.792l1.287-7.784-.561-.144a2.5 2.5 0 00-3.169.879 12.413 12.413 0 00-1.42 3.317 4.018 4.018 0 01-2.294 2.637c-2.015.608-3.923-1.527-6.026-1.444a3.788 3.788 0 00-3.291 3.378 7.344 7.344 0 001.377 4.826c1.793 2.783 5.121 5.02 8.304 4.104zm13.879 4.92l5.785-15.236a14.86 14.86 0 00-5.785 15.236zm29.522-12.278l-1.17.05a7.547 7.547 0 00-.064 6.682 15.059 15.059 0 004.364 5.305 30.657 30.657 0 009.627 5.376 61.264 61.264 0 0015.82 2.437l9.187.6c1.459.1 3.346-.09 3.751-1.494.335-1.16-.653-2.25-1.576-3.029a57.728 57.728 0 00-28.392-12.886c-3.972-.608-8.181-.856-11.547-3.041zm32.688 40.43l-6.607-6.407c-2.142-2.077-5.351-4.278-7.806-2.582-1.411.975-1.846 2.876-3.042 4.105a5.874 5.874 0 01-5.448 1.3 17.332 17.332 0 01-5.259-2.493l-5.465-3.391-5.657-3.511-4.256 4.136c.185-2.035-2.529-3.358-4.408-2.553a6.809 6.809 0 00-3.39 4.846 26.5 26.5 0 01-1.627 5.892c-2.161 4.137-7.407 5.362-12.023 6.055s-9.844 1.669-12.315 5.629c-2.058 3.3-1.441 7.533-.754 11.359l2.6 14.475a7.912 7.912 0 002 4.726c2.285 2.017 5.825.791 8.614-.439a58.251 58.251 0 0118.513-5.365 26.716 26.716 0 0118.342 4.7c3.308 2.519 5.83 6.005 9.335 8.242a18.516 18.516 0 0016.2 1.413 24.114 24.114 0 0012.318-10.984 28.855 28.855 0 00-.622-28.565 56.644 56.644 0 00-9.243-10.588zm-6.494 58.974a3.891 3.891 0 00-.247 4.613 6.374 6.374 0 004.072 2.621 18.926 18.926 0 004.951.227l.05-1.235a12.685 12.685 0 00-2.9-5.844c-1.595-1.516-4.414-1.982-5.926-.382zm56.714 1.325l-.789-.289-5.638 8.5c-1.011 1.524-2.067 3.354-1.45 5.076.73 2.038 3.429 2.635 5.526 2.1a8.718 8.718 0 006.3-6.92 8.56 8.56 0 00-3.949-8.467zm14.331-8.993l-5.188-4.125q-.1 2.87-.208 5.74h-.195a38.136 38.136 0 013.382 3.363c1.215 1.033 3.252 1.5 4.29.3a2.714 2.714 0 00.112-2.995 7.966 7.966 0 00-2.193-2.283zm-93.734-179.442c-2.177-.068-4.587-.2-6.274 1.177a8.416 8.416 0 00-1.448 1.688l-.595.833a22.9 22.9 0 00-2.318 3.727 4.917 4.917 0 00-.315 4.066 2.357 2.357 0 003.479 1c.93-.862.713-2.425 1.417-3.481a3.252 3.252 0 012.62-1.253 17.223 17.223 0 012.991.338 14.432 14.432 0 0014.124-22.063l-.175-.535a6.446 6.446 0 00-6.538 5.04c-.487 2.537.545 5.483-.992 7.558-1.297 1.746-3.799 1.973-5.976 1.905zm19.487-26.892l-.332-.029a16.829 16.829 0 00-5.521 2.057 2.558 2.558 0 00-1.258 1.276 1.856 1.856 0 00.439 1.708 5.478 5.478 0 001.464 1.1 8.711 8.711 0 002.66 1.19 2.953 2.953 0 002.716-.7 3.925 3.925 0 00.637-3.252 17.1 17.1 0 00-.806-3.35zm-33.554 27.538a8.387 8.387 0 001.092-2.714l.609-2.24-2.17-1.318a12.565 12.565 0 00-2.841 2.025 4.238 4.238 0 00-1.3 3.139 2.591 2.591 0 002.13 2.418 2.846 2.846 0 002.482-1.309zM426.971 86.035c-.858.535-.616 1.828-.268 2.777l1.2 3.27.559-2.116a4.5 4.5 0 00.618-2.729c-.193-.931-1.302-1.702-2.109-1.202z"/></g><g transform="translate(644.07 340.623)"><circle cx="50" cy="50" r="50" transform="translate(.364 .44)" fill="#08AAC6"/><g clip-path="url(#a)"><path d="M63.48 48.308a12.339 12.339 0 10-18.783 6.554l-7.531 18.877 37-3.135S55.416 60.542 55.18 56.522a12.325 12.325 0 008.3-8.214z" fill="#ed9da0"/><path d="M74.216 69.414l3.155-1.458a5.941 5.941 0 014.68 4.527c1.075 4.067 5.984 25.856 5.984 25.856a6.317 6.317 0 011.228 6.752s.574 4.335-1.228 4.987-13.873 9.971-13.873 9.971z" fill="#090814"/><path d="M64.712 63.737l-8.156-4.967c-1.881 9.36-11.585 9.874-13.466.515l-6 4.453-12.66 4.22 1.841 49.084 25.7-.074v.074H75.53l1.841-49.084z" fill="#090814"/><path d="M27.588 69.414l-3.155-1.458a5.941 5.941 0 00-4.68 4.527c-1.075 4.067.921 27.583.921 27.583a6.317 6.317 0 00-1.228 6.752s-.574 4.335 1.228 4.987 6.915.942 6.915.942zm12.457-29.961l-.937 9.556s-9.829-19.072 2.391-22.599c0 0-1.19-1.612.537-2.148s18.106-3.108 19.411 4.91c0 0 8.556 5.3 5.967 10.976l-3.051 6.67-2.762.153s-.078-12.7-4.3-12.276-17.256 4.758-17.256 4.758z" fill="#090814"/></g></g><g transform="translate(374.891 214.171)"><ellipse cx="50.5" cy="50" rx="50.5" ry="50" transform="translate(-.457 -.108)" fill="#08AAC6"/><g clip-path="url(#b)"><g transform="translate(14.002 25.614)"><path d="M29.578 29.757l-.5 8.152 15.223.772-4.714-10.741z" fill="#ed9da0"/><path d="M28.687 36.69c4.08 2.144 10.607 1.558 18 0l1.156 60.37s-24.1 7.808-32.057-2.3l5.155-51.653 7.745-6.412z" fill="#d6d6e3"/><path d="M42.046 33.551l10.974 6.5a10.567 10.567 0 014.759 12.063l-8.481 28.967s13.811 23.728 9.324 25.821c-10.085 4.7-25.134 3.559-25.134 3.559l3.363-56.81 5.2-20.1zm-12.882 2.924l-12.409 4.821-2.931 35.8-8.208 28.838c13.9 5.074 12.6 2.71 12.6 2.71l2.3-49.759 8.641-22.4z" fill="#3f3d58"/><path d="M11.04 105.32l.042-.2 12.684-58.667a5.044 5.044 0 10-9.832-2.259L0 101.472l11.037 3.852z" fill="#3f3d58"/><circle cx="12.35" cy="12.35" r="12.35" transform="translate(23.832 7.222)" fill="#ed9da0"/><path d="M30.307 3.571c-2.72.956-4.277 1.5-5.7 2.877-2.408 2.32-2.806 5.421-3.175 8.3a16.019 16.019 0 00.659 8.5c.45 1.136 2.636 6.2 6.818 6.838.821.126 2.75.159 2.194-.252-5.144-3.8-7.339-6.09-7.159-11.943.112-3.637 5.669-7.563 8.968-8.269a5.619 5.619 0 014.566 1.064c2.773 2.277 2.655 11.691 5.579 13.659 1.2.81.4-4.888 1.249-3.964 1.672 1.823.6 4.613.3 5.678-1.425 5.043-2.918 1.314-4.309 5.62-1.5 4.649 11.678 7.78 12.126 8.818.78 1.806-10.366 10.375-7.306 11.861 3.883 1.887 6.944-.57 8.749 1.536 1.009 1.177.463 2.425 2.286 6.088.595 1.2.894 1.794 1.156 1.773 1.246-.1 3.265-10.078 0-19.369-1.37-3.9-2.712-7.719-6.307-10.707-1.9-1.58-3.5-2.148-3.951-3.992-.649-2.636 2.045-3.76 2.584-7.917.369-2.843.628-6.91-.377-9.516-.948-2.462-1.771-4.6-3.925-6.535-.518-.465-4.694-3.628-9.122-3.718-2.038-.041-3.537 2.738-5.9 3.569z" fill="#090814"/><path d="M29.707 75.091c-3.812-.4-7.1 1.315-7.336 3.834s2.662 4.884 6.477 5.285a9.257 9.257 0 004.493-.578l16.181 1.489.486-7.893-16-.63a9.388 9.388 0 00-4.3-1.506z" fill="#ed9da0"/><path d="M49.422 40.418a7.516 7.516 0 018.406 5.894c2.84 13.5 7.937 42.27-.068 42.75a77.092 77.092 0 01-20.515-1.883l2.512-14.444 8.164-.837-4.8-22.462a7.519 7.519 0 016.3-9.018z" fill="#3f3d58"/></g></g></g><path d="M147.974 200.399a50.08 50.08 0 11-50.08 50.08 50.08 50.08 0 0150.08-50.08z" fill="#08AAC6"/><g clip-path="url(#c)" transform="translate(97.894 200.399)"><g transform="translate(21.167 18.373)"><circle cx="8.654" cy="8.654" transform="translate(23.21 4.758)" fill="#ffb9b9" r="8.654"/><path d="M24.39 15.379s-.394 12.195-2.36 13.768 7.081 8.261 7.081 8.261l5.9-9.441v-8.654z" fill="#ffb9b9"/><path d="M28.324 31.902l-4.776-7.212-2.7 3.671-3.934 11.015 3.147 42.878 18.489.394 2.36-49.173-5.9-7.081z" fill="#f2f2f2"/><path d="M48.386 34.655l3.147-.393s.786.393 1.18 3.147 5.112 27.144 5.112 27.144l-6.294 29.9-7.081-9.441 4.329-16.521-4.328-16.528zm-40.125-.393h-2.36l-5.9 31.864L5.508 90.91l5.508-9.048-1.574-9.835.785-8.654 2.754-5.114zm18.49-20.847l1.574-.394s1.18-6.689 3.934-5.9 9.835 1.574 9.835-1.574-6.689-5.9-10.621-5.508-10.622 1.576-10.229 7.476a39.6 39.6 0 002.932 11.641l.207-3.5z" fill="#090814"/><path d="M51.141 34.262l-12.588-5.114-2.95-2.164-8.851 39.142-5.9-17.7 1.77-22.619-16.325 8.458 5.51 26.752.787 10.228-2.36 8.261s-8.261 5.9-5.507 12.195 5.9 6.689 5.9 6.689S24.002 85.802 24.79 82.655s1.967-8.654 1.967-8.654 6.689 25.177 14.555 24.783 7.868-8.654 7.868-8.654l-1.967-8.654-3.151-9.059 1.574-14.948z" fill="#090814"/></g></g></svg>