<svg xmlns="http://www.w3.org/2000/svg" viewBox="0 0 255.12 193.65"><path fill="#13202f" d="M166.42 8a27.41 27.41 0 00-46.77 18.32v26a2.45 2.45 0 002.45 2.44h23.73c8.35 0 14.94-2.33 20.59-8a27.44 27.44 0 000-38.76z"/><path fill="#f03748" d="M67.89 28.93A27.4 27.4 0 0086.22 75.7h26a2.45 2.45 0 002.45-2.45V49.52c0-8.35-2.34-14.94-8-20.59a27.46 27.46 0 00-38.78 0zm20.9 98.43A27.4 27.4 0 00135.56 109V83a2.45 2.45 0 00-2.44-2.45h-23.74c-8.34 0-14.94 2.34-20.59 8a27.46 27.46 0 000 38.81zm98.44-20.89A27.4 27.4 0 00168.9 59.7h-26a2.45 2.45 0 00-2.45 2.44v23.74c0 8.34 2.34 14.94 8 20.59a27.46 27.46 0 0038.78 0z"/><path fill="#13202f" d="M125.74 184.82c-1.57 1-3.48 2.13-5.74 2.13s-4.16-1.22-4.15-4.56v-9.84h9.85l-2.23-6.61h-7.62v-6.79h-7v6.79h-5v6.61h5v10.41c0 6.92 3.38 10.67 10 10.69a17.34 17.34 0 009-2.79zm34.99.39l5.77-19.27h7.5l-9.1 27.24h-8.22l-5.89-18.08-5.91 18.08h-8.16l-9.13-27.24h7.64l5.83 19.15 6-19.15h7.57zm75.43-9.78h2.55l7.55-9.5h8.82l-10.55 12.57 10.59 14.67h-8.85l-7.68-11.35h-2.43v11.35H229v-40.85h7.21zm-180.59-9.95a8.94 8.94 0 00-7.67 3.57v-16.71h-7v40.84h7v-15.76a5.4 5.4 0 015.65-5.19c3.28 0 5.2 2.13 5.2 6v15h7.17v-17.28c.08-6.23-4.28-10.46-10.35-10.47zm36.43.46v1.64a14.09 14.09 0 100 24v1.63h7v-27.27zm-7.37 21a7.37 7.37 0 117.37-7.38 7.37 7.37 0 01-7.33 7.37zm139.55-20.89a12.23 12.23 0 00-2.67-.28c-3.27 0-5.74 1.11-7.42 3.62v-3.45H207v27.24h7.13v-14.55c0-4 2.39-6 5.73-6a11.8 11.8 0 014.36.86zm-36.07-.66a14.09 14.09 0 1014.09 14.09 14.08 14.08 0 00-14.09-14.09zm0 21.45a7.37 7.37 0 117.37-7.36 7.36 7.36 0 01-7.37 7.36zm-157.32-5.59a13.41 13.41 0 11-.07-17.07l5.44-4.45a20.42 20.42 0 100 26z"/></svg>