<svg xmlns="http://www.w3.org/2000/svg" width="882.126" height="576.272"><g data-name="Group 138"><g data-name="Group 137" transform="translate(-519 -251.864)"><path data-name="Path 1240" d="M766.534 626.521l-54.67-3.361 1.436-36.792 38.57 3.17c-2.223 8.823-1.411 25.2 14.664 36.983z" fill="#ffb8b8"/><circle data-name="Ellipse 405" cx="26.701" cy="26.701" r="26.701" transform="translate(928.774 296.429)" fill="#fd6584"/><path data-name="Path 2166" d="M1015.233 310.487a13.235 13.235 0 00-11.17-9.29 1.078 1.078 0 00-.18 0 1.418 1.418 0 00-.22-.05c-8.94-1.16-18.88 1.66-25.57 7.8a23.958 23.958 0 00-5.83 8.04 12.917 12.917 0 00-10.83-5.28 13.184 13.184 0 00-11.8 9.51 1.526 1.526 0 00.69 1.69 6.674 6.674 0 002.79 1.42c2.21.47 4.44.9 6.67 1.29q6.54 1.14 13.15 1.85 4.365.465 8.75.74c6.04.38 12.11.47 18.16.28 3-.1 5.88-.2 8.62-1.52a12.8 12.8 0 004.95-4.31 14.548 14.548 0 001.82-12.17z" fill="#f2f2f2"/><path data-name="Path 2167" d="M960.3 349.387a13.65 13.65 0 00-.56-3.3 13.26 13.26 0 00-11.18-9.29.966.966 0 00-.17 0 1.884 1.884 0 00-.23-.05 33.193 33.193 0 00-14.69 1.51c-7.26 2.43-13.63 7.33-16.7 14.33a12.922 12.922 0 00-10.84-5.28 13.184 13.184 0 00-11.8 9.51 1.555 1.555 0 00.69 1.69 6.733 6.733 0 002.79 1.42c2.22.47 4.44.9 6.68 1.29q6.54 1.14 13.14 1.85a195.168 195.168 0 0026.92 1.02c2.99-.1 5.88-.2 8.62-1.52a12.77 12.77 0 004.94-4.31 14.265 14.265 0 002.39-8.87z" fill="#f2f2f2"/><path data-name="Path 2170" d="M1255.47 729.046h-103.377a167.922 167.922 0 01.149-24.858c4.131-51.094 31.929-99.768 73.868-129.241-5.359 19.09-2.6 38.069 2.977 57.122-.781.26-1.563.484-2.27.781a46.236 46.236 0 00-15.294 9.378c-1.228 1.154-2.53 2.828-1.9 4.428.558 1.34 2.233 1.786 3.684 2.084 3.5.67 7 1.34 10.457 1.972 2.791.558 5.582 1.079 8.373 1.637 1.3.223 2.6.484 3.907.744.186.447.3.856.484 1.265 6.549 18.048 13.694 36.245 17.044 54.74a127.806 127.806 0 011.712 14.029c.116 1.973.186 3.947.186 5.919z" fill="#f2f2f2"/><path data-name="Path 2172" d="M784.08 661.318c-17.565 10.68-28.729 27.2-37.846 45.7a46.743 46.743 0 00-21.249 11.164c-1.265 1.154-2.568 2.828-1.9 4.428.558 1.34 2.233 1.786 3.684 2.084 3.461.67 7 1.34 10.457 1.972-.335.782-.67 1.6-1 2.382H620.12a164.175 164.175 0 0117.453-19.948c1.377-1.377 2.791-2.679 4.242-4.019a173.651 173.651 0 0150.238-31.706 176.734 176.734 0 0192.028-12.057z" fill="#f2f2f2"/><path data-name="Path 2174" d="M1024.33 685.644l92.37 8.2.99.09v-394.14l-.99-.69a288.324 288.324 0 00-62.01-32.94l-4.72 65.1-.43 5.96-4.67 64.56-1.44 19.86-18.93 261.7z" fill="#f2f2f2"/><path data-name="Path 2175" d="M795.9 292.454c-.66.42-1.32.84-1.98 1.28v400.2l1.98-.18 91.37-8.11-.17-2.3-18.93-261.7-1.44-19.86-4.67-64.56-.43-5.96-4.95-68.27a287.689 287.689 0 00-60.78 29.46z" fill="#f2f2f2"/><path data-name="Path 2176" d="M793.92 293.734c-1.33.86-2.66 1.74-3.97 2.63v403.03c0 10.07 5.97 18.51 13.95 20.66a15.251 15.251 0 004 .53h296.8a15.117 15.117 0 003.99-.53 17.06 17.06 0 007.78-4.66 22.919 22.919 0 006.18-16v-396.02c-1.64-1.21-3.29-2.41-4.96-3.58l-.99-.69v400.29a16.113 16.113 0 01-.46 3.85c-1.41 5.95-6.06 10.31-11.54 10.31H807.9c-6.62 0-12-6.35-12-14.16v-406.94c-.66.42-1.32.84-1.98 1.28z" fill="#f2f2f2"/><path data-name="Rectangle 484" fill="#f2f2f2" d="M792.922 331.268h326.752v5.959H792.922z"/><path data-name="Path 2177" d="M1019.6 255.254c-1.98-.49-3.96-.95-5.96-1.38v161.81h5.96z" fill="#f2f2f2"/><path data-name="Path 2178" d="M898.96 251.864c-1.99.37-3.98.75-5.96 1.16v162.66h5.96z" fill="#f2f2f2"/><path data-name="Path 2179" d="M728.86 710.154a26.712 26.712 0 001.93 9.98 25.539 25.539 0 001.75 3.56 27.1 27.1 0 003.02 4.18 26.76 26.76 0 0020.12 9.11h391.31a26.82 26.82 0 000-53.64H755.68a26.846 26.846 0 00-26.82 26.81z" fill="#f2f2f2"/><path data-name="Rectangle 485" fill="#f2f2f2" d="M1117.688 421.646H792.922v-19.863h324.766z"/><path data-name="Path 2180" d="M969.211 406.748h-27.81a10.925 10.925 0 0110.925-10.925h5.959a10.925 10.925 0 0110.926 10.925z" fill="#f2f2f2"/><path data-name="Path 2181" d="M519 725.474a292.039 292.039 0 0028.749 28.95h824.631a292.039 292.039 0 0028.749-28.95z" fill="#f2f2f2"/><path data-name="Path 2182" d="M916.61 628.664v102.56h71.85v-102.56a3.448 3.448 0 00-2.43-3.3 3.174 3.174 0 00-1.03-.16h-64.92a3.463 3.463 0 00-3.47 3.46zm28.04 35.24a7.67 7.67 0 1115.34 0v11.9a7.67 7.67 0 11-15.34 0z" fill="#e6e6e6"/><path data-name="Path 2183" d="M916.39 727.944v9.89a1.946 1.946 0 001.93 1.94h68.43a1.94 1.94 0 001.93-1.94v-9.89z" fill="#3f3d56"/><path data-name="Path 2184" d="M803.58 474.144V661.4a9.007 9.007 0 009 9h277.5a9.007 9.007 0 009-9V474.144a9.012 9.012 0 00-9-8.99h-277.5a9.011 9.011 0 00-9 8.99z" fill="#3f3d56"/><path data-name="Path 2185" d="M810.09 476.474v182.62a4.818 4.818 0 004.81 4.81h272.87a4.818 4.818 0 004.81-4.81v-182.62a4.82 4.82 0 00-4.81-4.82H814.9a4.821 4.821 0 00-4.81 4.82z" fill="#f2f2f2"/><path data-name="Path 2186" d="M865.73 742.1a2.948 2.948 0 002.32 1.11h162.34a2.987 2.987 0 002.92-3.6l-2.52-11.97a2.993 2.993 0 00-1.86-2.17 2.9 2.9 0 00-1.06-.2H870.56a2.894 2.894 0 00-1.06.2 2.992 2.992 0 00-1.86 2.17l-2.52 11.97a2.985 2.985 0 00.61 2.49z" fill="#2f2e41"/><rect data-name="Rectangle 486" width="5" height="3" rx=".488" transform="rotate(180 513.359 365.215)" fill="#3f3d56"/><rect data-name="Rectangle 487" width="5" height="3" rx=".488" transform="rotate(180 508.358 365.215)" fill="#3f3d56"/><rect data-name="Rectangle 488" width="5" height="3" rx=".488" transform="rotate(180 503.358 365.215)" fill="#3f3d56"/><rect data-name="Rectangle 489" width="5" height="3" rx=".488" transform="rotate(180 498.358 365.215)" fill="#3f3d56"/><rect data-name="Rectangle 490" width="5" height="3" rx=".488" transform="rotate(180 493.358 365.215)" fill="#3f3d56"/><rect data-name="Rectangle 491" width="5" height="3" rx=".488" transform="rotate(180 488.358 365.215)" fill="#3f3d56"/><rect data-name="Rectangle 492" width="5" height="3" rx=".488" transform="rotate(180 483.358 365.215)" fill="#3f3d56"/><rect data-name="Rectangle 493" width="5" height="3" rx=".488" transform="rotate(180 478.358 365.215)" fill="#3f3d56"/><rect data-name="Rectangle 494" width="5" height="3" rx=".488" transform="rotate(180 473.358 365.215)" fill="#3f3d56"/><rect data-name="Rectangle 495" width="5" height="3" rx=".488" transform="rotate(180 468.358 365.215)" fill="#3f3d56"/><rect data-name="Rectangle 496" width="5" height="3" rx=".488" transform="rotate(180 463.358 365.215)" fill="#3f3d56"/><rect data-name="Rectangle 497" width="5" height="3" rx=".488" transform="rotate(180 458.358 365.215)" fill="#3f3d56"/><rect data-name="Rectangle 498" width="5" height="3" rx=".488" transform="rotate(180 453.358 365.215)" fill="#3f3d56"/><rect data-name="Rectangle 499" width="5" height="3" rx=".488" transform="rotate(180 448.358 365.215)" fill="#3f3d56"/><rect data-name="Rectangle 500" width="5" height="3" rx=".488" transform="rotate(180 443.358 365.215)" fill="#3f3d56"/><rect data-name="Rectangle 501" width="5" height="3" rx=".488" transform="rotate(180 438.358 365.215)" fill="#3f3d56"/><rect data-name="Rectangle 502" width="5" height="3" rx=".488" transform="rotate(180 513.418 367.715)" fill="#3f3d56"/><rect data-name="Rectangle 503" width="5" height="3" rx=".488" transform="rotate(180 508.418 367.715)" fill="#3f3d56"/><rect data-name="Rectangle 504" width="5" height="3" rx=".488" transform="rotate(180 503.418 367.715)" fill="#3f3d56"/><rect data-name="Rectangle 505" width="5" height="3" rx=".488" transform="rotate(180 498.418 367.715)" fill="#3f3d56"/><rect data-name="Rectangle 506" width="5" height="3" rx=".488" transform="rotate(180 493.418 367.715)" fill="#3f3d56"/><rect data-name="Rectangle 507" width="5" height="3" rx=".488" transform="rotate(180 488.418 367.715)" fill="#3f3d56"/><rect data-name="Rectangle 508" width="5" height="3" rx=".488" transform="rotate(180 483.418 367.715)" fill="#3f3d56"/><rect data-name="Rectangle 509" width="5" height="3" rx=".488" transform="rotate(180 478.418 367.715)" fill="#3f3d56"/><rect data-name="Rectangle 510" width="5" height="3" rx=".488" transform="rotate(180 473.418 367.715)" fill="#3f3d56"/><rect data-name="Rectangle 511" width="5" height="3" rx=".488" transform="rotate(180 468.418 367.715)" fill="#3f3d56"/><rect data-name="Rectangle 512" width="5" height="3" rx=".488" transform="rotate(180 463.418 367.715)" fill="#3f3d56"/><rect data-name="Rectangle 513" width="5" height="3" rx=".488" transform="rotate(180 458.418 367.715)" fill="#3f3d56"/><rect data-name="Rectangle 514" width="5" height="3" rx=".488" transform="rotate(180 453.418 367.715)" fill="#3f3d56"/><rect data-name="Rectangle 515" width="5" height="3" rx=".488" transform="rotate(180 448.418 367.715)" fill="#3f3d56"/><rect data-name="Rectangle 516" width="5" height="3" rx=".488" transform="rotate(180 443.418 367.715)" fill="#3f3d56"/><rect data-name="Rectangle 517" width="5" height="3" rx=".488" transform="rotate(180 438.418 367.715)" fill="#3f3d56"/><rect data-name="Rectangle 518" width="40" height="3" rx=".488" transform="rotate(180 489.418 370.715)" fill="#3f3d56"/><path data-name="Path 2187" d="M828.612 496.811h255.323a1.016 1.016 0 100-2.031H828.612a1.016 1.016 0 100 2.031z" fill="#3f3d56"/><ellipse data-name="Ellipse 406" cx="5.95" cy="6.083" rx="5.95" ry="6.083" transform="translate(1060.604 477.43)" fill="#3f3d56"/><ellipse data-name="Ellipse 407" cx="5.95" cy="6.083" rx="5.95" ry="6.083" transform="translate(1040.049 477.43)" fill="#3f3d56"/><ellipse data-name="Ellipse 408" cx="5.95" cy="6.083" rx="5.95" ry="6.083" transform="translate(1019.493 477.43)" fill="#3f3d56"/><path data-name="Path 2188" d="M839.9 480.044a1.1 1.1 0 001.09 1.1h14.6a1.105 1.105 0 000-2.21h-14.6a1.1 1.1 0 00-1.09 1.11z" fill="#3f3d56"/><path data-name="Path 2189" d="M839.9 484.194a1.1 1.1 0 001.09 1.1h14.6a1.105 1.105 0 000-2.21h-14.6a1.1 1.1 0 00-1.09 1.11z" fill="#3f3d56"/><path data-name="Path 2190" d="M839.9 488.334a1.1 1.1 0 001.09 1.11h14.6a1.105 1.105 0 000-2.21h-14.6a1.1 1.1 0 00-1.09 1.1z" fill="#3f3d56"/><rect data-name="Rectangle 519" width="11.006" height="5.76" rx="2.88" transform="translate(836.286 520.407)" fill="#FEBBB0"/><rect data-name="Rectangle 520" width="11.006" height="5.76" rx="2.88" transform="translate(896.286 520.407)" fill="#FEBBB0"/><rect data-name="Rectangle 521" width="11.006" height="5.76" rx="2.88" transform="translate(913.286 520.407)" fill="#FEBBB0"/><rect data-name="Rectangle 522" width="38.366" height="5.76" rx="2.88" transform="translate(852.606 519.927)" fill="#FEBBB0"/><rect data-name="Rectangle 523" width="38.366" height="5.76" rx="2.88" transform="translate(932.606 519.927)" fill="#FEBBB0"/><rect data-name="Rectangle 524" width="11.006" height="5.76" rx="2.88" transform="translate(852.286 533.407)" fill="#FEBBB0"/><rect data-name="Rectangle 525" width="11.006" height="5.76" rx="2.88" transform="translate(912.286 533.407)" fill="#FEBBB0"/><rect data-name="Rectangle 526" width="11.006" height="5.76" rx="2.88" transform="translate(929.286 533.407)" fill="#FEBBB0"/><rect data-name="Rectangle 527" width="38.366" height="5.76" rx="2.88" transform="translate(868.606 532.927)" fill="#FEBBB0"/><rect data-name="Rectangle 528" width="38.366" height="5.76" rx="2.88" transform="translate(948.606 532.927)" fill="#FEBBB0"/><rect data-name="Rectangle 529" width="11.006" height="5.76" rx="2.88" transform="translate(868.286 546.407)" fill="#FEBBB0"/><rect data-name="Rectangle 530" width="11.006" height="5.76" rx="2.88" transform="translate(928.286 546.407)" fill="#FEBBB0"/><rect data-name="Rectangle 531" width="11.006" height="5.76" rx="2.88" transform="translate(945.286 546.407)" fill="#FEBBB0"/><rect data-name="Rectangle 532" width="38.366" height="5.76" rx="2.88" transform="translate(884.606 545.927)" fill="#FEBBB0"/><rect data-name="Rectangle 533" width="38.366" height="5.76" rx="2.88" transform="translate(964.606 545.927)" fill="#FEBBB0"/><rect data-name="Rectangle 534" width="11.006" height="5.76" rx="2.88" transform="translate(884.286 559.407)" fill="#FEBBB0"/><rect data-name="Rectangle 535" width="11.006" height="5.76" rx="2.88" transform="translate(944.286 559.407)" fill="#FEBBB0"/><rect data-name="Rectangle 536" width="11.006" height="5.76" rx="2.88" transform="translate(961.286 559.407)" fill="#FEBBB0"/><rect data-name="Rectangle 537" width="38.366" height="5.76" rx="2.88" transform="translate(900.606 558.927)" fill="#FEBBB0"/><rect data-name="Rectangle 538" width="11.006" height="5.76" rx="2.88" transform="translate(896.286 611.101)" fill="#FEBBB0"/><rect data-name="Rectangle 539" width="11.006" height="5.76" rx="2.88" transform="translate(913.286 611.101)" fill="#FEBBB0"/><rect data-name="Rectangle 540" width="38.366" height="5.76" rx="2.88" transform="translate(932.606 611.581)" fill="#FEBBB0"/><rect data-name="Rectangle 541" width="11.006" height="5.76" rx="2.88" transform="translate(836.286 611.101)" fill="#FEBBB0"/><rect data-name="Rectangle 542" width="38.366" height="5.76" rx="2.88" transform="translate(852.606 611.581)" fill="#FEBBB0"/><rect data-name="Rectangle 543" width="11.006" height="5.76" rx="2.88" transform="translate(852.286 598.101)" fill="#FEBBB0"/><rect data-name="Rectangle 544" width="11.006" height="5.76" rx="2.88" transform="translate(912.286 598.101)" fill="#FEBBB0"/><rect data-name="Rectangle 545" width="11.006" height="5.76" rx="2.88" transform="translate(929.286 598.101)" fill="#FEBBB0"/><rect data-name="Rectangle 546" width="38.366" height="5.76" rx="2.88" transform="translate(868.606 598.581)" fill="#FEBBB0"/><rect data-name="Rectangle 547" width="11.006" height="5.76" rx="2.88" transform="translate(868.286 585.101)" fill="#FEBBB0"/><rect data-name="Rectangle 548" width="11.006" height="5.76" rx="2.88" transform="translate(928.286 585.101)" fill="#FEBBB0"/><rect data-name="Rectangle 549" width="11.006" height="5.76" rx="2.88" transform="translate(945.286 585.101)" fill="#FEBBB0"/><rect data-name="Rectangle 550" width="38.366" height="5.76" rx="2.88" transform="translate(884.606 585.581)" fill="#FEBBB0"/><rect data-name="Rectangle 551" width="11.006" height="5.76" rx="2.88" transform="translate(884.286 572.101)" fill="#FEBBB0"/><rect data-name="Rectangle 552" width="11.006" height="5.76" rx="2.88" transform="translate(944.286 572.101)" fill="#FEBBB0"/><rect data-name="Rectangle 553" width="11.006" height="5.76" rx="2.88" transform="translate(961.286 572.101)" fill="#FEBBB0"/><rect data-name="Rectangle 554" width="38.366" height="5.76" rx="2.88" transform="translate(900.606 572.581)" fill="#FEBBB0"/><path data-name="Path 2191" d="M869.832 797.816c-.22.11-.44.22-.66.32q-2.085 1.035-4.2 2.04-6.33 3.015-12.82 5.73a285.491 285.491 0 01-34.97 12.03c-2-12.47-3.94-41.88-5.8-63.51-.35-4.07-.7-7.86-1.05-11.21a97.15 97.15 0 00-1.89-13.08 4.359 4.359 0 00-.39-.97c.19 1.73.39 6.89.58 14.05.1 3.35.19 7.14.29 11.21.47 20.82.96 49.15 1.45 65.28-1.39.34-2.79.68-4.19 1-.88.21-1.77.41-2.66.6-1.08.24-2.16.48-3.24.7q-1.7.36-3.39.69a290.078 290.078 0 01-56.06 5.44c-1.25 0-2.49-.01-3.74-.02-.38 0-.76-.01-1.15-.02-1.1-.02-2.24-.04-3.4-.07a288.591 288.591 0 01-65.84-9.49l.87-64.11.15-11.21.06-4.25a15.181 15.181 0 00-.88 4.25c-.35 2.73-.71 6.6-1.07 11.21-1.37 17.76-2.78 46.41-4.24 62.71-17.29-4.92-29.93-9.41-45.73-17.31-.61-.3-1.23-.61-1.84-.92.11-.77.23-1.54.34-2.33 1.79-12.44-.32-28.63 1.66-42.15 1.51-10.43 3.07-20.45 4.64-28.95 1.9-10.23 3.83-18.27 5.74-22.18 2.2-4.51 4.4-8.95 6.53-13.2l2.71-5.39c.48-.95.96-1.89 1.43-2.81 2.14-4.19 4.16-8.06 6.01-11.49 1.3-2.41 2.5-4.59 3.6-6.5 1.29-2.25 2.43-4.11 3.37-5.52a55.306 55.306 0 0129.28-22.21l.3-.08.29.12.33.15 19.06-6.97 8.51-20.49 43.71-2.69 7.06 5.37 3.61 2.75 3.85 2.93 7.08 5.39 2.01.62 2.99.92 20.45 6.28.21-.09.3.08a55.168 55.168 0 0127.36 19.5c.68.88 1.31 1.79 1.92 2.71 1.66 2.46 3.9 6.35 6.54 11.23 1.09 2.01 2.24 4.19 3.45 6.5.73 1.39 7.03 21.05 13.16 41.13 5.73 18.8 11.31 37.97 12.04 42.89.13.91.27 1.83.4 2.74.83 5.69 1.65 11.42 2.44 17.01 1.17 8.29 2.31 16.29 3.4 23.44l.03.2z" fill="#FEBBB0"/><path data-name="Path 2192" d="M823.51 725.43l-8.5-32.792-7.5 28.3z" opacity=".2"/><path data-name="Path 2193" d="M535.749 725.05a6.416 6.416 0 006.183 4.331l26.492-.682a6.328 6.328 0 005.981-4.657l3.749-40.087a9.8 9.8 0 004.238.871 9.662 9.662 0 10-.485-19.317 8.177 8.177 0 00-1.736.181 6.548 6.548 0 00-4.874-2.1l-40.751 1.052a5.858 5.858 0 00-1.005.125 6.365 6.365 0 00-4.873 8.265zm43.173-43.817l2.668-9.553a6.506 6.506 0 00.02-3.375c.129 0 .244-.062.373-.062a6.91 6.91 0 11.324 13.817 6.505 6.505 0 01-3.385-.828z" fill="#090814"/><path data-name="Path 2194" d="M533.541 664.763c.868 4.964 10.629 8.454 22.366 7.847 10.793-.5 19.617-4.287 21.234-8.779a6.024 6.024 0 00-1.844-.246l-40.751 1.052a5.852 5.852 0 00-1.005.126z" fill="#090814"/><path data-name="Path 2195" d="M561.38 701.407a.625.625 0 00.191-.084l7.281-4.766a.632.632 0 000-1.058l-7.568-4.957a.632.632 0 00-.693 1.058l6.759 4.427-6.472 4.237a.633.633 0 00.5 1.143z" fill="#f2f2f2"/><path data-name="Path 2196" d="M549.881 701.937a.633.633 0 00.16-1.162l-6.712-3.848 6.487-4.819a.632.632 0 00-.754-1.015l-7.263 5.395a.632.632 0 00.062 1.057l7.55 4.328a.633.633 0 00.47.064z" fill="#f2f2f2"/><path data-name="Path 2197" d="M560.656 705.583a.611.611 0 00.173-.073.633.633 0 00.212-.87l-10.322-16.97a.633.633 0 10-1.081.659l10.322 16.97a.633.633 0 00.7.284z" fill="#f2f2f2"/><path data-name="Path 2198" d="M1305.069 798.9c-.61.31-1.23.62-1.84.92-15.8 7.9-28.44 12.39-45.73 17.31-1.46-16.3-2.87-44.95-4.24-62.71-.36-4.61-.72-8.48-1.07-11.21a15.183 15.183 0 00-.88-4.25l.06 4.25.15 11.21.87 64.11a288.589 288.589 0 01-65.84 9.49c-1.16.03-2.3.05-3.4.07-.39.01-.77.02-1.15.02-1.25.01-2.49.02-3.74.02a289.272 289.272 0 01-69.54-8.43c.49-16.13.98-44.46 1.45-65.28.1-4.07.19-7.86.29-11.21.19-7.16.39-12.32.58-14.05a4.36 4.36 0 00-.39.97 97.15 97.15 0 00-1.89 13.08c-.35 3.35-.7 7.14-1.05 11.21-1.86 21.63-3.8 51.04-5.8 63.51a285.473 285.473 0 01-34.97-12.03q-9-3.75-17.68-8.09c1.1-7.2 2.25-15.27 3.43-23.64.92-6.49 1.87-13.16 2.84-19.75 1.5-10.18 52.46-120.11 64.47-123.96l.3-.08.21.09 20.45-6.28 2.99-.92 2.01-.62 7.08-5.39 3.85-2.93 3.61-2.75 7.06-5.37 43.71 2.69 8.51 20.49 19.06 6.97.33-.15.29-.12.3.08a55.307 55.307 0 0129.28 22.21c.94 1.41 2.08 3.27 3.37 5.52 1.1 1.91 2.3 4.09 3.6 6.5 1.85 3.43 3.87 7.3 6.01 11.49.47.92.95 1.86 1.43 2.81q1.335 2.64 2.71 5.39c2.13 4.25 4.33 8.69 6.53 13.2 1.91 3.91 3.84 11.95 5.74 22.18 1.57 8.5 3.13 18.52 4.64 28.95 1.98 13.52-.13 29.71 1.66 42.15.11.794.23 1.564.34 2.33z" fill="#FEBBB0"/><circle data-name="Ellipse 409" cx="50.836" cy="50.836" r="50.836" transform="translate(1126.038 497.186)" fill="#ffb9b9"/><path data-name="Path 2199" d="M1095.579 725.43l8.5-32.792 7.5 28.3z" opacity=".2"/><path data-name="Path 2200" d="M1321.689 704.064c-3.04 41.88.11 60.32-16.67 94.85a286.162 286.162 0 01-47.52 18.22q-2.55.72-5.11 1.4a288.585 288.585 0 01-65.84 9.49c-1.16.03-2.3.05-3.4.07-.39.01-.77.02-1.15.02-1.25.01-2.49.02-3.74.02a289.272 289.272 0 01-69.54-8.43q-3.42-.84-6.81-1.77a285.473 285.473 0 01-34.97-12.03q-9-3.75-17.68-8.09c-1.31-.66-2.62-1.32-3.91-2-6.63-11.66-10.4-25.84-10.48-42.88 4.59-29.36 276.68-74.19 286.82-48.87z" fill="#e6e6e6"/><path data-name="Path 2201" d="M1321.681 711.236c.155-2.593.329-5.271.531-8.06-10.14-25.32-282.23 19.51-286.82 48.87.013 2.692.128 5.3.321 7.855 11.116-28.979 269.605-71.587 285.968-48.665z" opacity=".2"/><path data-name="Path 2202" d="M1038.181 734.483l22.334-11.167-18.611-50.251-4.9-25.342a19.161 19.161 0 00-31.282-10.907 19.161 19.161 0 00-2.493 26.518l18.207 22.759z" fill="#ffb9b9"/><path data-name="Path 2203" d="M1050.436 685.567l-29.778 14.889 22.6 70.809a30.977 30.977 0 0022.336 20.716 30.977 30.977 0 0033.737-14.2l59.923-102.711a31.62 31.62 0 00-10.2-42.982 31.62 31.62 0 00-45.3 12.765l-36.567 77.937z" fill="#FEBBB0"/><circle data-name="Ellipse 410" cx="55.935" cy="55.935" r="55.935" transform="translate(673.493 483.48)" fill="#ffb9b9"/><path data-name="Path 2204" d="M674.164 500.87c4.548-6.13 11.085-10.488 16.085-16.255 2.743-3.164 5.021-6.75 8.106-9.582 5.73-5.263 13.744-7.42 21.52-7.688a54.3 54.3 0 0144.331 21.038l12.194-7.149 4.817 12.68a7.391 7.391 0 0111.264 9.248c.967-2.989 5.4-3.623 7.842-1.649s3.1 5.488 2.7 8.6a17.32 17.32 0 01-13.065 14.326c-5.3 1.182-11.477-.06-15.723 3.332-3.4 2.72-4.431 7.672-7.9 10.3-4.28 3.24-10.329 1.742-15.65 2.458-9.308 1.253-16.678 10.773-15.56 20.1-.842-2.942-1.727-5.97-3.639-8.36s-5.131-4.007-8.062-3.128c-4.846 1.453-5.639 8.058-4.464 12.978 3.115 13.05 14.919 34.144 14.919 34.144-15.328 6.046-33.589.329-45.415-11.144s-17.986-27.719-20.669-43.976c-2.279-13.782-1.956-29.052 6.369-40.273z" fill="#090814"/><path data-name="Path 2205" d="M1240.582 576.046c10.642-24.4 4.613-46.85-8.36-58.76v-.01c-5.1-11.43-11.88-20.25-19.64-22.32-3.75-2.41-7.39-5.24-11.43-6.68a14.887 14.887 0 00-11.68.53l-2.06-.55c-4.551-.651-.111.381-6.08-1.62-8.78-4.09-16.69-5.92-23.73-5.92-22.96 0-36.54 19.44-40.14 42.94l19.19 5.11 6.67-10.63-3.08 11.59 10.59 2.81c16.12 20.99-3.17 69.41-27.62 96.35q8.73-2.415 17.39-4.08l20.98-30.76-13 28c6.75-.99 15.36-.04 24.77 1.87 3.17-4.14 4.84-9.66 3.2-14.58a55.749 55.749 0 015.48 16.53c19.86 4.85 46.95 7.34 61.55 9.18 11.796-3.846 11.828-47.34-3-59z" fill="#090814"/><path data-name="Path 2206" d="M1247.505 493.054c7.795 17.453-7.933 24.96-22.341 24.748-13.019-.192-24.084-9.338-24.748-22.341a23.576 23.576 0 0122.341-24.748c13.003-.665 19.443 10.453 24.748 22.341z" fill="#090814"/><path data-name="Path 2207" d="M885.134 782.269l-13.442-23.177 44.7-35.052 18.583-20.282a19.644 19.644 0 0119.169-5.922 20.352 20.352 0 0114.59 14.15c3.145 10.7-2.478 22.045-12.712 25.657l-28.878 10.193z" fill="#ffb9b9"/><path data-name="Path 2208" d="M895.182 776.466l-19.99 16.66-5.39 4.49-.63.52q-2.085 1.035-4.2 2.04-6.33 3.015-12.82 5.73a285.491 285.491 0 01-34.97 12.03q-3.39.93-6.81 1.77c-1.39.34-2.79.68-4.19 1-.88.21-1.77.41-2.66.6-1.08.24-2.16.48-3.24.7q-1.7.36-3.39.69a30.963 30.963 0 01-9.62-22.44c0-.27 0-.55.01-.83l3.21-82.33 1.42-36.49a31.618 31.618 0 0131.69-30.78c.96 0 1.91.05 2.85.14.68.88 1.31 1.79 1.92 2.71 1.66 2.46 3.9 6.35 6.54 11.23 1.09 2.01 2.24 4.19 3.45 6.5.73 1.39 7.03 21.05 13.16 41.13l-2.7 20.97-4.88 37.8 20.02-13.14 14.1-9.26 1.67 2.79 4.35 7.26 8.4 14z" fill="#FEBBB0"/><path data-name="Path 2209" d="M884.222 752.936c-.01 1.7-.05 3.37-.14 5.02a97.238 97.238 0 01-1.58 13.56 79.141 79.141 0 01-7.31 21.61c-.46.91-.95 1.81-1.45 2.69-1.29.68-2.6 1.34-3.91 2-.22.11-.44.22-.66.32q-8.355 4.155-17.02 7.77a285.491 285.491 0 01-34.97 12.03q-3.39.93-6.81 1.77-6.675 1.65-13.48 2.99a290.068 290.068 0 01-56.06 5.44c-1.25 0-2.49-.01-3.74-.02-.38 0-.76-.01-1.15-.02-1.1-.02-2.24-.04-3.4-.07a288.588 288.588 0 01-65.84-9.49q-2.565-.675-5.11-1.4a286.165 286.165 0 01-47.52-18.22c-16.78-34.53-13.63-52.97-16.67-94.85 6.24-15.59 111.81-4.58 193.09 13.03 22.06 4.78 42.32 10.05 58.33 15.41 16.54 5.53 28.53 11.15 33.23 16.43a7.937 7.937 0 012.17 4z" fill="#e6e6e6"/><path data-name="Path 2210" d="M597.408 711.236a639.195 639.195 0 00-.531-8.06c10.14-25.32 282.23 19.51 286.82 48.87a111.11 111.11 0 01-.321 7.855c-11.116-28.979-269.606-71.587-285.968-48.665z" opacity=".2"/></g></g></svg>