<?xml version="1.0" encoding="UTF-8"?><svg id="_レイヤー_2" xmlns="http://www.w3.org/2000/svg" viewBox="0 0 120 135"><defs><style>.cls-1{fill:none;}.cls-2{fill:#f3a493;}.cls-3{fill:#e9d900;}.cls-4{fill:#fff;}.cls-5{fill:#eade63;}.cls-6{fill:#7d7e80;}.cls-7{fill:#74c7c5;}.cls-8{fill:#74a6c7;}</style></defs><g id="RGB"><g id="tate_RGB"><rect class="cls-1" width="120" height="135"/><g id="_ロゴタイプ"><g id="shita"><polygon class="cls-7" points="30.96 112.04 26.78 122.24 35.11 122.24 30.96 112.04"/><path class="cls-6" d="m15.03,109.74c1.8,0,3.05.19,4.23,1.23,1.3,1.15,1.63,2.71,1.63,3.87,0,.62-.1,2.35-1.32,3.58-.89.89-2.21,1.42-4.06,1.42h-1.87c-.08,0-.15.07-.15.15v5.63c0,.08-.07.15-.15.15h-2.82c-.08,0-.15-.07-.15-.15v-15.72c0-.08.07-.15.15-.15h4.51Zm-1.54,7.25c0,.08.07.15.15.15h1.12c.6,0,1.37,0,2.04-.5.58-.46.86-1.18.86-1.87,0-.89-.43-1.49-.89-1.83-.65-.46-1.46-.5-2.21-.5h-.93c-.08,0-.15.07-.15.15v4.41Zm25.31,8.56l-7.74-16.48c-.05-.12-.22-.12-.27,0l-7.83,16.48c-.05.1.03.21.14.21h3.08s.08-.02.11-.05l1.33-1.46s.07-.05.11-.05h6.33s.08.02.11.05l1.33,1.46s.07.05.11.05h3.06c.11,0,.18-.11.14-.21Zm-5.59-3.64h-4.56c-.08,0-.15-.08-.13-.16l2.26-8.8c.04-.17.24-.17.28,0l2.27,8.8c.02.08-.04.16-.13.16Zm13.57-12.02v13.03c0,.08.07.15.15.15h4.65c.08,0,.15.07.15.15v2.39c0,.08-.07.15-.15.15h-7.77c-.08,0-.15-.07-.15-.15v-15.72c0-.08.07-.15.15-.15h2.82c.08,0,.15.07.15.15Zm19.21,2.54h-5.46c-.08,0-.15.07-.15.15v3.28c0,.08.07.15.15.15h5.22c.08,0,.15.07.15.15v2.39c0,.08-.07.15-.15.15h-5.22c-.08,0-.15.07-.15.15v4.07c0,.08.07.15.15.15h5.46c.08,0,.15.07.15.15v2.39c0,.08-.07.15-.15.15h-8.59c-.08,0-.15-.07-.15-.15v-15.72c0-.08.07-.15.15-.15h8.59c.08,0,.15.07.15.15v2.39c0,.08-.07.15-.15.15Zm12.09.15v13.03c0,.08-.07.15-.15.15h-2.82c-.08,0-.15-.07-.15-.15v-13.03c0-.08-.07-.15-.15-.15h-3.3c-.08,0-.15-.07-.15-.15v-2.39c0-.08.07-.15.15-.15h10.03c.08,0,.15.07.15.15v2.39c0,.08-.07.15-.15.15h-3.3c-.08,0-.15.07-.15.15Zm14.46,0v13.03c0,.08-.07.15-.15.15h-2.82c-.08,0-.15-.07-.15-.15v-13.03c0-.08-.07-.15-.15-.15h-3.3c-.08,0-.15-.07-.15-.15v-2.39c0-.08.07-.15.15-.15h10.03c.08,0,.15.07.15.15v2.39c0,.08-.07.15-.15.15h-3.3c-.08,0-.15.07-.15.15Zm16.93-.15h-5.46c-.08,0-.15.07-.15.15v3.28c0,.08.07.15.15.15h5.22c.08,0,.15.07.15.15v2.39c0,.08-.07.15-.15.15h-5.22c-.08,0-.15.07-.15.15v4.07c0,.08.07.15.15.15h5.46c.08,0,.15.07.15.15v2.39c0,.08-.07.15-.15.15h-8.59c-.08,0-.15-.07-.15-.15v-15.72c0-.08.07-.15.15-.15h8.59c.08,0,.15.07.15.15v2.39c0,.08-.07.15-.15.15Zm-94.41-2.69c1.8,0,3.05.19,4.23,1.23,1.3,1.15,1.63,2.71,1.63,3.87,0,.62-.1,2.35-1.32,3.58-.89.89-2.21,1.42-4.06,1.42h-1.87c-.08,0-.15.07-.15.15v5.63c0,.08-.07.15-.15.15h-2.82c-.08,0-.15-.07-.15-.15v-15.72c0-.08.07-.15.15-.15h4.51Zm-1.54,7.25c0,.08.07.15.15.15h1.12c.6,0,1.37,0,2.04-.5.58-.46.86-1.18.86-1.87,0-.89-.43-1.49-.89-1.83-.65-.46-1.46-.5-2.21-.5h-.93c-.08,0-.15.07-.15.15v4.41Zm25.31,8.56l-7.74-16.48c-.05-.12-.22-.12-.27,0l-7.83,16.48c-.05.1.03.21.14.21h3.08s.08-.02.11-.05l1.33-1.46s.07-.05.11-.05h6.33s.08.02.11.05l1.33,1.46s.07.05.11.05h3.06c.11,0,.18-.11.14-.21Zm-5.59-3.64h-4.56c-.08,0-.15-.08-.13-.16l2.26-8.8c.04-.17.24-.17.28,0l2.27,8.8c.02.08-.04.16-.13.16Zm13.57-12.02v13.03c0,.08.07.15.15.15h4.65c.08,0,.15.07.15.15v2.39c0,.08-.07.15-.15.15h-7.77c-.08,0-.15-.07-.15-.15v-15.72c0-.08.07-.15.15-.15h2.82c.08,0,.15.07.15.15Zm19.21,2.54h-5.46c-.08,0-.15.07-.15.15v3.28c0,.08.07.15.15.15h5.22c.08,0,.15.07.15.15v2.39c0,.08-.07.15-.15.15h-5.22c-.08,0-.15.07-.15.15v4.07c0,.08.07.15.15.15h5.46c.08,0,.15.07.15.15v2.39c0,.08-.07.15-.15.15h-8.59c-.08,0-.15-.07-.15-.15v-15.72c0-.08.07-.15.15-.15h8.59c.08,0,.15.07.15.15v2.39c0,.08-.07.15-.15.15Zm12.09.15v13.03c0,.08-.07.15-.15.15h-2.82c-.08,0-.15-.07-.15-.15v-13.03c0-.08-.07-.15-.15-.15h-3.3c-.08,0-.15-.07-.15-.15v-2.39c0-.08.07-.15.15-.15h10.03c.08,0,.15.07.15.15v2.39c0,.08-.07.15-.15.15h-3.3c-.08,0-.15.07-.15.15Zm14.46,0v13.03c0,.08-.07.15-.15.15h-2.82c-.08,0-.15-.07-.15-.15v-13.03c0-.08-.07-.15-.15-.15h-3.3c-.08,0-.15-.07-.15-.15v-2.39c0-.08.07-.15.15-.15h10.03c.08,0,.15.07.15.15v2.39c0,.08-.07.15-.15.15h-3.3c-.08,0-.15.07-.15.15Zm16.93-.15h-5.46c-.08,0-.15.07-.15.15v3.28c0,.08.07.15.15.15h5.22c.08,0,.15.07.15.15v2.39c0,.08-.07.15-.15.15h-5.22c-.08,0-.15.07-.15.15v4.07c0,.08.07.15.15.15h5.46c.08,0,.15.07.15.15v2.39c0,.08-.07.15-.15.15h-8.59c-.08,0-.15-.07-.15-.15v-15.72c0-.08.07-.15.15-.15h8.59c.08,0,.15.07.15.15v2.39c0,.08-.07.15-.15.15Z"/></g><g id="ue"><path class="cls-6" d="m39.3,101c0,.06-.03.11-.08.13-.95.49-2.2.89-3.88.89-2.81,0-4.51-.96-5.86-2.23-1.85-1.78-2.57-3.77-2.57-6.13,0-2.91,1.2-5,2.57-6.27,1.61-1.51,3.6-2.11,5.88-2.11,1.11,0,2.42.19,3.86.94.05.03.08.08.08.13v3.18c0,.13-.16.2-.26.1-1.41-1.42-3.07-1.53-3.61-1.53-3.22,0-5.31,2.64-5.31,5.6,0,3.56,2.74,5.48,5.43,5.48,1.36,0,2.57-.54,3.49-1.47.09-.1.26-.03.26.1v3.17Zm21.61-7.33c0,4.88-3.51,8.36-8.55,8.36s-8.55-3.48-8.55-8.36,3.51-8.38,8.55-8.38,8.55,3.51,8.55,8.38Zm-3.22,0c0-3.24-2.21-5.55-5.33-5.55s-5.33,2.31-5.33,5.55,2.21,5.52,5.33,5.52,5.33-2.28,5.33-5.52Zm12.2-8.02c2.23,0,4.18.24,5.96,1.56,1.95,1.47,3.07,3.8,3.07,6.46s-1.1,4.97-3.22,6.46c-1.87,1.32-3.63,1.54-5.86,1.54h-3.98c-.08,0-.15-.07-.15-.15v-15.72c0-.08.07-.15.15-.15h4.03Zm-1.06,13.18c0,.08.07.15.15.15h.81c.79,0,2.52-.05,3.91-1.06,1.27-.91,1.99-2.55,1.99-4.25s-.7-3.31-1.97-4.28c-1.3-.96-2.88-1.06-3.94-1.06h-.81c-.08,0-.15.07-.15.15v10.34Zm24.1-10.49h-5.46c-.08,0-.15.07-.15.15v3.28c0,.08.07.15.15.15h5.22c.08,0,.15.07.15.15v2.39c0,.08-.07.15-.15.15h-5.22c-.08,0-.15.07-.15.15v4.07c0,.08.07.15.15.15h5.46c.08,0,.15.07.15.15v2.39c0,.08-.07.15-.15.15h-8.59c-.08,0-.15-.07-.15-.15v-15.72c0-.08.07-.15.15-.15h8.59c.08,0,.15.07.15.15v2.39c0,.08-.07.15-.15.15Z"/></g></g><g id="_シンボルマーク"><path class="cls-6" d="m60.52,74.4c-20.54,0-37.24-14.3-37.24-31.88S39.99,10.64,60.52,10.64s37.24,14.3,37.24,31.88c0,6.64-2.36,13-6.82,18.4-.47.57-1.19.87-1.93.8-.74-.07-1.4-.5-1.77-1.16-1.08-1.95-3.21-3.1-5.43-2.94-2.91.22-5.23,2.68-5.27,5.61-.02,1.53.55,2.97,1.61,4.07.51.53.74,1.28.59,2-.14.72-.63,1.33-1.3,1.62-5.28,2.31-10.98,3.48-16.94,3.48Zm0-61.44c-19.27,0-34.94,13.26-34.94,29.57s15.67,29.57,34.94,29.57c5.61,0,10.97-1.09,15.93-3.25-1.45-1.53-2.23-3.53-2.2-5.64h0c.06-4.12,3.31-7.58,7.4-7.88,3.09-.23,6.06,1.36,7.58,4.06,4.08-4.96,6.23-10.79,6.23-16.85,0-16.3-15.67-29.57-34.94-29.57Z"/><path class="cls-4" d="m74.36,61.81c.05-3.52,2.83-6.49,6.33-6.75,2.8-.21,5.28,1.27,6.52,3.53.37.68,1.3.78,1.8.18,4.13-5,6.56-11.09,6.56-17.66,0-16.97-16.16-30.72-36.09-30.72s-36.09,13.75-36.09,30.72,16.16,30.72,36.09,30.72c5.94,0,11.54-1.22,16.48-3.38.7-.31.87-1.21.34-1.76-1.22-1.26-1.97-2.99-1.94-4.89Z"/><path class="cls-6" d="m59.48,72.99c-20.54,0-37.24-14.3-37.24-31.88S38.94,9.24,59.48,9.24s37.24,14.3,37.24,31.88c0,6.64-2.36,13-6.82,18.4-.47.57-1.19.87-1.93.8-.74-.07-1.4-.5-1.77-1.16-1.08-1.95-3.21-3.1-5.43-2.94-2.91.22-5.23,2.68-5.27,5.61-.02,1.53.55,2.97,1.61,4.07.51.53.74,1.28.59,2-.14.72-.63,1.33-1.3,1.62-5.28,2.31-10.98,3.48-16.94,3.48Zm0-61.44c-19.27,0-34.94,13.26-34.94,29.57s15.67,29.57,34.94,29.57c5.61,0,10.97-1.09,15.93-3.25-1.45-1.53-2.23-3.53-2.2-5.64h0c.06-4.12,3.31-7.58,7.4-7.88,3.09-.23,6.06,1.36,7.58,4.06,4.08-4.96,6.23-10.79,6.23-16.85,0-16.3-15.67-29.57-34.94-29.57Z"/><g><path class="cls-2" d="m45.11,48.37c-.29,0-.58-.06-.86-.18l-11.75-5.21c-1.08-.48-1.57-1.74-1.09-2.83.48-1.08,1.74-1.57,2.82-1.09l11.75,5.21c1.08.48,1.57,1.74,1.09,2.83-.35.8-1.14,1.28-1.96,1.28Z"/><path class="cls-8" d="m32.86,42.75c-.81,0-1.58-.46-1.94-1.24-.5-1.07-.04-2.35,1.03-2.85l12.21-5.71c1.07-.5,2.34-.04,2.84,1.04.5,1.07.04,2.35-1.03,2.85l-12.21,5.71c-.29.14-.6.2-.9.2Z"/><path class="cls-7" d="m54.74,57.06c-.24,0-.49-.04-.72-.13-1.11-.4-1.69-1.63-1.29-2.74l9.66-26.87c.4-1.11,1.63-1.69,2.74-1.29,1.11.4,1.69,1.63,1.29,2.74l-9.66,26.87c-.31.87-1.14,1.42-2.01,1.42Z"/><line class="cls-5" x1="85.68" y1="40.18" x2="73.93" y2="34.97"/><path class="cls-3" d="m85.68,42.33c-.29,0-.58-.06-.86-.18l-11.75-5.21c-1.08-.48-1.57-1.74-1.09-2.83.48-1.08,1.74-1.57,2.82-1.09l11.75,5.21c1.08.48,1.57,1.74,1.09,2.83-.35.8-1.14,1.28-1.96,1.28Z"/><path class="cls-8" d="m73.97,48.44c-.81,0-1.58-.46-1.94-1.24-.5-1.07-.04-2.35,1.03-2.85l12.21-5.71c1.07-.5,2.34-.04,2.84,1.04.5,1.07.04,2.35-1.03,2.85l-12.21,5.71c-.29.14-.6.2-.9.2Z"/></g></g></g></g></svg>